<svg width="1439" height="959" viewBox="0 0 1439 959" fill="none" xmlns="http://www.w3.org/2000/svg">
<g clip-path="url(#clip0_91_2106)">
<path d="M1439 0H0V959H1439V0Z" fill="#FAF9F7"/>
<mask id="mask0_91_2106" style="mask-type:luminance" maskUnits="userSpaceOnUse" x="0" y="0" width="1439" height="959">
<path d="M1439 0H0V959H1439V0Z" fill="white"/>
</mask>
<g mask="url(#mask0_91_2106)">
<path d="M796.362 90.0308L546.047 340.261C540.617 345.689 531.814 345.689 526.384 340.261C520.955 334.833 520.955 326.033 526.384 320.605L667.756 179.283C670.543 176.496 670.543 171.977 667.756 169.19C664.968 166.404 660.447 166.404 657.66 169.19L625.689 201.15C619.846 206.99 610.376 206.99 604.535 201.15C598.695 195.31 598.695 185.843 604.535 180.004L877.134 -92.5014C881.648 -97.0145 881.648 -104.33 877.134 -108.843C872.619 -113.356 865.301 -113.356 860.787 -108.843L810.756 -58.8252C805.976 -54.0474 798.227 -54.0474 793.447 -58.8252C788.668 -63.6029 788.668 -71.3497 793.447 -76.1275L937.71 -220.34C942.225 -224.853 949.542 -224.853 954.057 -220.34C958.572 -215.827 958.572 -208.512 954.057 -203.999L894.682 -144.644C890.302 -140.265 890.302 -133.163 894.682 -128.784C899.062 -124.405 906.167 -124.405 910.547 -128.784L1018.72 -236.919C1025.49 -243.688 1036.47 -243.688 1043.24 -236.919C1050.01 -230.151 1050.01 -219.178 1043.24 -212.409L694.78 135.929C691.58 139.128 691.58 144.316 694.78 147.517C697.98 150.716 703.17 150.716 706.373 147.517L801.402 52.5205C805.892 48.0343 813.167 48.0343 817.657 52.5205C822.147 57.0086 822.145 64.2874 817.653 68.7736L796.362 90.0308Z" fill="#F6EDF7"/>
<path d="M-82.328 408.747L-332.643 658.975C-338.073 664.403 -346.876 664.403 -352.306 658.975C-357.735 653.547 -357.735 644.747 -352.306 639.319L-210.934 497.997C-208.147 495.21 -208.147 490.691 -210.934 487.904C-213.722 485.118 -218.243 485.118 -221.03 487.904L-253.001 519.864C-258.843 525.702 -268.314 525.702 -274.154 519.864C-279.997 514.024 -279.997 504.556 -274.154 498.718L-1.55603 226.214C2.95862 221.701 2.95862 214.386 -1.55603 209.873C-6.07065 205.36 -13.3884 205.36 -17.903 209.873L-67.9361 259.889C-72.7155 264.666 -80.465 264.666 -85.2444 259.889C-90.0238 255.111 -90.0238 247.364 -85.2444 242.586L59.0182 98.3778C63.5329 93.8647 70.8506 93.8647 75.3653 98.3778C79.8799 102.891 79.8799 110.206 75.3653 114.719L15.9883 174.072C11.608 178.45 11.608 185.551 15.9883 189.932C20.3686 194.31 27.4734 194.31 31.8538 189.932L140.026 81.7967C146.797 75.0281 157.774 75.0281 164.545 81.7967C171.316 88.5653 171.316 99.5382 164.545 106.307L-183.912 454.644C-187.112 457.844 -187.112 463.032 -183.912 466.233C-180.712 469.432 -175.522 469.432 -172.319 466.233L-77.2896 371.236C-72.8 366.748 -65.5244 366.748 -61.0347 371.236C-56.545 375.724 -56.5469 383.003 -61.0385 387.489L-82.328 408.747Z" fill="#F6EDF7"/>
<path d="M886.954 1058.02C876.372 1047.44 859.215 1047.44 848.632 1058.02C841.441 1065.21 829.781 1065.21 822.59 1058.02L818.467 1053.9C811.276 1046.71 811.276 1035.05 818.467 1027.87L1044.29 802.125C1051.9 794.512 1064.25 794.512 1071.86 802.125C1079.48 809.737 1079.48 822.08 1071.86 829.692L1012.24 889.294C1007.74 893.794 1007.74 901.092 1012.24 905.591C1016.74 910.091 1024.04 910.091 1028.54 905.591L1252.45 681.763C1259.03 675.188 1269.69 675.188 1276.27 681.763C1282.85 688.338 1282.85 698.998 1276.27 705.573L1046.01 935.746C1037.05 944.713 1037.05 959.249 1046.01 968.216C1054.98 977.183 1054.98 991.719 1046.01 1000.69L850.618 1196.02C841.93 1204.7 827.847 1204.7 819.159 1196.02C810.493 1187.35 810.47 1173.31 819.106 1164.62L887.019 1096.26C897.539 1085.67 897.51 1068.57 886.954 1058.02Z" fill="#F6EDF7"/>
<path d="M129.965 739.113L24.8505 844.188C19.5186 849.518 19.5186 858.159 24.8505 863.487C30.1825 868.817 38.8261 868.817 44.1562 863.487L149.268 758.411C154.74 752.941 154.574 744.023 148.902 738.76C143.524 733.767 135.155 733.922 129.965 739.113Z" fill="#F6EDF7"/>
<path d="M395.23 876.837L290.118 981.912C284.786 987.243 284.786 995.883 290.118 1001.21C295.45 1006.54 304.093 1006.54 309.423 1001.21L414.536 896.136C420.008 890.665 419.843 881.747 414.169 876.484C408.789 871.491 400.422 871.647 395.23 876.837Z" fill="#F6EDF7"/>
<path d="M399.196 874.468L294.083 979.544C288.751 984.874 288.751 993.514 294.083 998.843C299.415 1004.17 308.057 1004.17 313.389 998.843L418.501 893.767C423.973 888.297 423.806 879.378 418.135 874.115C412.755 869.125 404.386 869.28 399.196 874.468Z" fill="#F6EDF7"/>
<path d="M283.642 -64.5061L178.53 40.5696C173.198 45.8997 173.198 54.5403 178.53 59.8685C183.86 65.1967 192.506 65.1967 197.836 59.8685L302.948 -45.2072C308.42 -50.6773 308.253 -59.596 302.582 -64.859C297.202 -69.8516 288.834 -69.6962 283.642 -64.5061Z" fill="#F6EDF7"/>
<path d="M1200.87 97.4651L1136.95 161.356C1130.74 167.568 1130.74 177.638 1136.95 183.85C1143.17 190.06 1153.24 190.06 1159.46 183.85L1223.37 119.959C1229.75 113.584 1229.55 103.188 1222.94 97.0547C1216.67 91.2355 1206.92 91.4177 1200.87 97.4651Z" fill="#F6EDF7"/>
<path d="M955.124 -48.7789L864.244 42.0691C855.409 50.9015 855.409 65.2212 864.244 74.0536C873.08 82.886 887.404 82.886 896.24 74.0536L987.12 -16.7944C996.189 -25.8588 995.913 -40.6409 986.513 -49.362C977.595 -57.6363 963.727 -57.3792 955.124 -48.7789Z" fill="#F6EDF7"/>
<path d="M337.039 355.129L-47.0459 739.08C-52.3779 744.41 -52.3779 753.051 -47.0459 758.379C-41.7159 763.709 -33.0723 763.709 -27.7403 758.379L356.344 374.428C361.816 368.958 361.651 360.039 355.978 354.776C350.598 349.784 342.23 349.939 337.039 355.129Z" fill="#F6EDF7"/>
<path d="M631.232 835.17L247.147 1219.12C241.815 1224.45 241.815 1233.09 247.147 1238.42C252.479 1243.75 261.123 1243.75 266.453 1238.42L650.537 854.469C656.01 848.999 655.843 840.08 650.171 834.817C644.791 829.825 636.424 829.982 631.232 835.17Z" fill="#F6EDF7"/>
</g>
<mask id="mask1_91_2106" style="mask-type:luminance" maskUnits="userSpaceOnUse" x="0" y="0" width="1439" height="959">
<path d="M1439 0H0V959H1439V0Z" fill="white"/>
</mask>
<g mask="url(#mask1_91_2106)">
<path d="M604.725 956.731C605.905 957.913 605.905 959.825 604.725 961.006C603.545 962.188 601.631 962.188 600.449 961.006C599.267 959.825 599.267 957.913 600.449 956.731C601.629 955.55 603.543 955.55 604.725 956.731Z" fill="#F9DEB1"/>
<path d="M619.413 945.07C621.083 945.07 622.437 943.716 622.437 942.047C622.437 940.378 621.083 939.024 619.413 939.024C617.743 939.024 616.389 940.378 616.389 942.047C616.389 943.716 617.743 945.07 619.413 945.07Z" fill="#F9DEB1"/>
<path d="M638.379 923.088C639.561 924.269 639.561 926.181 638.379 927.363C637.199 928.542 635.284 928.542 634.102 927.363C632.92 926.181 632.92 924.269 634.102 923.088C635.284 921.908 637.197 921.908 638.379 923.088Z" fill="#F9DEB1"/>
<path d="M655.206 906.267C656.386 907.446 656.386 909.36 655.206 910.542C654.026 911.721 652.111 911.721 650.929 910.542C649.747 909.36 649.747 907.448 650.929 906.267C652.111 905.087 654.026 905.087 655.206 906.267Z" fill="#F9DEB1"/>
<path d="M669.895 894.607C671.565 894.607 672.919 893.254 672.919 891.584C672.919 889.915 671.565 888.562 669.895 888.562C668.225 888.562 666.871 889.915 666.871 891.584C666.871 893.254 668.225 894.607 669.895 894.607Z" fill="#F9DEB1"/>
<path d="M659.018 943.719C660.198 944.899 660.198 946.813 659.018 947.995C657.838 949.176 655.923 949.176 654.741 947.995C653.559 946.815 653.559 944.901 654.741 943.719C655.921 942.54 657.836 942.54 659.018 943.719Z" fill="#F9DEB1"/>
<path d="M675.845 926.899C677.027 928.08 677.027 929.992 675.845 931.174C674.663 932.353 672.75 932.353 671.568 931.174C670.388 929.992 670.388 928.08 671.568 926.899C672.748 925.717 674.663 925.717 675.845 926.899Z" fill="#F9DEB1"/>
<path d="M692.671 910.078C693.851 911.257 693.851 913.171 692.671 914.353C691.49 915.533 689.577 915.533 688.395 914.353C687.215 913.171 687.215 911.259 688.395 910.078C689.577 908.896 691.49 908.896 692.671 910.078Z" fill="#F9DEB1"/>
<path d="M696.482 947.53C697.664 948.71 697.664 950.624 696.482 951.806C695.302 952.987 693.387 952.987 692.205 951.806C691.023 950.624 691.023 948.712 692.205 947.53C693.387 946.349 695.302 946.349 696.482 947.53Z" fill="#F9DEB1"/>
<path d="M713.311 930.71C714.491 931.891 714.491 933.803 713.311 934.985C712.131 936.166 710.216 936.166 709.034 934.985C707.852 933.805 707.852 931.891 709.034 930.71C710.214 929.528 712.129 929.528 713.311 930.71Z" fill="#F9DEB1"/>
<path d="M731.81 956.501C733.48 956.501 734.834 955.147 734.834 953.478C734.834 951.809 733.48 950.455 731.81 950.455C730.14 950.455 728.786 951.809 728.786 953.478C728.786 955.147 730.14 956.501 731.81 956.501Z" fill="#F9DEB1"/>
<path d="M669.895 894.607C671.565 894.607 672.919 893.254 672.919 891.584C672.919 889.915 671.565 888.562 669.895 888.562C668.225 888.562 666.871 889.915 666.871 891.584C666.871 893.254 668.225 894.607 669.895 894.607Z" fill="#F9DEB1"/>
<path d="M688.859 872.625C690.039 873.806 690.039 875.719 688.859 876.9C687.677 878.08 685.764 878.08 684.582 876.9C683.402 875.721 683.402 873.806 684.582 872.625C685.764 871.443 687.679 871.443 688.859 872.625Z" fill="#F9DEB1"/>
<path d="M705.688 855.804C706.868 856.984 706.868 858.898 705.688 860.079C704.506 861.259 702.593 861.259 701.411 860.079C700.229 858.898 700.229 856.986 701.411 855.804C702.591 854.623 704.506 854.623 705.688 855.804Z" fill="#F9DEB1"/>
<path d="M720.375 844.143C722.045 844.143 723.399 842.789 723.399 841.12C723.399 839.451 722.045 838.097 720.375 838.097C718.705 838.097 717.351 839.451 717.351 841.12C717.351 842.789 718.705 844.143 720.375 844.143Z" fill="#F9DEB1"/>
<path d="M739.341 822.162C740.523 823.342 740.523 825.256 739.341 826.438C738.159 827.619 736.246 827.619 735.064 826.438C733.884 825.258 733.884 823.344 735.064 822.162C736.244 820.981 738.159 820.981 739.341 822.162Z" fill="#F9DEB1"/>
<path d="M756.168 805.34C757.35 806.519 757.35 808.433 756.168 809.615C754.988 810.796 753.073 810.796 751.891 809.615C750.709 808.435 750.709 806.521 751.891 805.34C753.071 804.16 754.986 804.16 756.168 805.34Z" fill="#F9DEB1"/>
<path d="M770.857 793.68C772.527 793.68 773.881 792.327 773.881 790.657C773.881 788.988 772.527 787.634 770.857 787.634C769.187 787.634 767.833 788.988 767.833 790.657C767.833 792.327 769.187 793.68 770.857 793.68Z" fill="#F9DEB1"/>
<path d="M787.684 776.859C789.354 776.859 790.708 775.506 790.708 773.836C790.708 772.167 789.354 770.813 787.684 770.813C786.014 770.813 784.66 772.167 784.66 773.836C784.66 775.506 786.014 776.859 787.684 776.859Z" fill="#F9DEB1"/>
<path d="M806.648 754.877C807.828 756.058 807.828 757.971 806.648 759.152C805.468 760.334 803.553 760.334 802.371 759.152C801.191 757.972 801.191 756.058 802.371 754.877C803.553 753.697 805.468 753.697 806.648 754.877Z" fill="#F9DEB1"/>
<path d="M821.337 743.215C823.007 743.215 824.361 741.862 824.361 740.193C824.361 738.523 823.007 737.17 821.337 737.17C819.667 737.17 818.313 738.523 818.313 740.193C818.313 741.862 819.667 743.215 821.337 743.215Z" fill="#F9DEB1"/>
<path d="M838.164 726.395C839.834 726.395 841.188 725.041 841.188 723.372C841.188 721.702 839.834 720.349 838.164 720.349C836.494 720.349 835.14 721.702 835.14 723.372C835.14 725.041 836.494 726.395 838.164 726.395Z" fill="#F9DEB1"/>
<path d="M857.13 704.414C858.31 705.594 858.31 707.508 857.13 708.69C855.948 709.871 854.035 709.871 852.853 708.69C851.673 707.51 851.673 705.596 852.853 704.414C854.033 703.233 855.948 703.233 857.13 704.414Z" fill="#F9DEB1"/>
<path d="M692.671 910.078C693.851 911.257 693.851 913.171 692.671 914.353C691.49 915.532 689.577 915.532 688.395 914.353C687.215 913.171 687.215 911.259 688.395 910.078C689.577 908.896 691.49 908.896 692.671 910.078Z" fill="#F9DEB1"/>
<path d="M709.498 893.257C710.678 894.438 710.678 896.35 709.498 897.532C708.318 898.713 706.403 898.713 705.221 897.532C704.039 896.35 704.039 894.438 705.221 893.257C706.403 892.075 708.318 892.075 709.498 893.257Z" fill="#F9DEB1"/>
<path d="M724.187 881.595C725.857 881.595 727.211 880.242 727.211 878.573C727.211 876.903 725.857 875.55 724.187 875.55C722.517 875.55 721.164 876.903 721.164 878.573C721.164 880.242 722.517 881.595 724.187 881.595Z" fill="#F9DEB1"/>
<path d="M743.152 859.613C744.332 860.793 744.332 862.707 743.152 863.888C741.97 865.07 740.057 865.07 738.875 863.888C737.695 862.709 737.695 860.795 738.875 859.613C740.057 858.434 741.972 858.434 743.152 859.613Z" fill="#F9DEB1"/>
<path d="M759.978 842.792C761.16 843.974 761.16 845.886 759.978 847.068C758.798 848.249 756.884 848.249 755.702 847.068C754.52 845.886 754.52 843.974 755.702 842.792C756.884 841.613 758.798 841.613 759.978 842.792Z" fill="#F9DEB1"/>
<path d="M774.668 831.133C776.338 831.133 777.691 829.78 777.691 828.11C777.691 826.441 776.338 825.087 774.668 825.087C772.998 825.087 771.644 826.441 771.644 828.11C771.644 829.78 772.998 831.133 774.668 831.133Z" fill="#F9DEB1"/>
<path d="M793.634 809.151C794.816 810.332 794.816 812.245 793.634 813.426C792.452 814.608 790.539 814.608 789.357 813.426C788.177 812.246 788.177 810.332 789.357 809.151C790.537 807.971 792.452 807.971 793.634 809.151Z" fill="#F9DEB1"/>
<path d="M810.46 792.329C811.64 793.511 811.64 795.423 810.46 796.605C809.28 797.784 807.365 797.784 806.184 796.605C805.002 795.423 805.002 793.511 806.184 792.329C807.365 791.148 809.278 791.148 810.46 792.329Z" fill="#F9DEB1"/>
<path d="M825.15 780.668C826.82 780.668 828.173 779.315 828.173 777.645C828.173 775.976 826.82 774.623 825.15 774.623C823.48 774.623 822.126 775.976 822.126 777.645C822.126 779.315 823.48 780.668 825.15 780.668Z" fill="#F9DEB1"/>
<path d="M844.114 758.688C845.296 759.867 845.296 761.782 844.114 762.963C842.932 764.145 841.019 764.145 839.837 762.963C838.657 761.783 838.657 759.869 839.837 758.688C841.019 757.506 842.934 757.506 844.114 758.688Z" fill="#F9DEB1"/>
<path d="M860.94 741.867C862.12 743.049 862.12 744.961 860.94 746.142C859.76 747.324 857.846 747.324 856.664 746.142C855.484 744.963 855.484 743.049 856.664 741.867C857.846 740.686 859.76 740.686 860.94 741.867Z" fill="#F9DEB1"/>
<path d="M877.767 725.044C878.947 726.226 878.947 728.138 877.767 729.32C876.585 730.501 874.672 730.501 873.49 729.32C872.31 728.138 872.31 726.226 873.49 725.044C874.672 723.865 876.587 723.865 877.767 725.044Z" fill="#F9DEB1"/>
<path d="M713.311 930.709C714.491 931.891 714.491 933.803 713.311 934.985C712.131 936.166 710.216 936.166 709.034 934.985C707.852 933.805 707.852 931.891 709.034 930.709C710.214 929.528 712.129 929.528 713.311 930.709Z" fill="#F9DEB1"/>
<path d="M730.137 913.887C731.319 915.066 731.319 916.98 730.137 918.162C728.955 919.341 727.042 919.341 725.861 918.162C724.681 916.98 724.681 915.068 725.861 913.887C727.041 912.707 728.955 912.707 730.137 913.887Z" fill="#F9DEB1"/>
<path d="M746.964 897.066C748.144 898.247 748.144 900.16 746.964 901.341C745.782 902.522 743.869 902.522 742.687 901.341C741.507 900.16 741.507 898.247 742.687 897.066C743.869 895.886 745.782 895.886 746.964 897.066Z" fill="#F9DEB1"/>
<path d="M763.791 880.245C764.971 881.425 764.971 883.339 763.791 884.52C762.609 885.702 760.696 885.702 759.514 884.52C758.332 883.341 758.332 881.427 759.514 880.245C760.696 879.065 762.611 879.065 763.791 880.245Z" fill="#F9DEB1"/>
<path d="M780.617 863.424C781.799 864.606 781.799 866.518 780.617 867.699C779.436 868.881 777.523 868.881 776.341 867.699C775.159 866.52 775.159 864.606 776.341 863.424C777.523 862.245 779.438 862.245 780.617 863.424Z" fill="#F9DEB1"/>
<path d="M797.444 846.603C798.624 847.785 798.624 849.697 797.444 850.879C796.262 852.058 794.349 852.058 793.167 850.879C791.987 849.697 791.987 847.785 793.167 846.603C794.349 845.422 796.264 845.422 797.444 846.603Z" fill="#F9DEB1"/>
<path d="M814.271 829.782C815.453 830.962 815.453 832.876 814.271 834.057C813.091 835.239 811.176 835.239 809.994 834.057C808.812 832.876 808.812 830.964 809.994 829.782C811.176 828.601 813.091 828.601 814.271 829.782Z" fill="#F9DEB1"/>
<path d="M831.099 812.961C832.281 814.143 832.281 816.055 831.099 817.237C829.919 818.418 828.005 818.418 826.823 817.237C825.641 816.057 825.641 814.143 826.823 812.961C828.003 811.78 829.918 811.78 831.099 812.961Z" fill="#F9DEB1"/>
<path d="M847.926 796.141C849.108 797.322 849.108 799.234 847.926 800.416C846.744 801.595 844.831 801.595 843.649 800.416C842.469 799.234 842.469 797.322 843.649 796.141C844.829 794.959 846.744 794.959 847.926 796.141Z" fill="#F9DEB1"/>
<path d="M864.753 779.318C865.933 780.499 865.933 782.412 864.753 783.593C863.573 784.775 861.658 784.775 860.476 783.593C859.294 782.412 859.294 780.499 860.476 779.318C861.656 778.138 863.571 778.138 864.753 779.318Z" fill="#F9DEB1"/>
<path d="M881.58 762.497C882.76 763.677 882.76 765.591 881.58 766.772C880.398 767.954 878.485 767.954 877.303 766.772C876.121 765.593 876.121 763.678 877.303 762.497C878.485 761.317 880.398 761.317 881.58 762.497Z" fill="#F9DEB1"/>
<path d="M898.406 745.676C899.588 746.856 899.588 748.77 898.406 749.951C897.224 751.133 895.311 751.133 894.13 749.951C892.948 748.772 892.948 746.858 894.13 745.676C895.311 744.497 897.226 744.497 898.406 745.676Z" fill="#F9DEB1"/>
<path d="M731.81 956.501C733.48 956.501 734.834 955.148 734.834 953.479C734.834 951.809 733.48 950.456 731.81 950.456C730.14 950.456 728.786 951.809 728.786 953.479C728.786 955.148 730.14 956.501 731.81 956.501Z" fill="#F9DEB1"/>
<path d="M750.776 934.519C751.956 935.7 751.956 937.613 750.776 938.794C749.594 939.976 747.681 939.976 746.499 938.794C745.32 937.615 745.32 935.7 746.499 934.519C747.679 933.339 749.594 933.339 750.776 934.519Z" fill="#F9DEB1"/>
<path d="M767.603 917.698C768.783 918.88 768.783 920.792 767.603 921.973C766.423 923.155 764.508 923.155 763.326 921.973C762.144 920.794 762.144 918.88 763.326 917.698C764.508 916.517 766.421 916.519 767.603 917.698Z" fill="#F9DEB1"/>
<path d="M782.29 906.037C783.96 906.037 785.314 904.683 785.314 903.014C785.314 901.345 783.96 899.991 782.29 899.991C780.62 899.991 779.267 901.345 779.267 903.014C779.267 904.683 780.62 906.037 782.29 906.037Z" fill="#F9DEB1"/>
<path d="M801.256 884.057C802.436 885.236 802.436 887.15 801.256 888.332C800.075 889.513 798.162 889.513 796.98 888.332C795.8 887.152 795.8 885.238 796.98 884.057C798.16 882.875 800.075 882.875 801.256 884.057Z" fill="#F9DEB1"/>
<path d="M818.083 867.236C819.263 868.417 819.263 870.329 818.083 871.511C816.901 872.692 814.988 872.692 813.806 871.511C812.624 870.331 812.624 868.417 813.806 867.236C814.988 866.054 816.903 866.054 818.083 867.236Z" fill="#F9DEB1"/>
<path d="M834.91 850.413C836.092 851.594 836.092 853.507 834.91 854.688C833.73 855.868 831.815 855.868 830.633 854.688C829.451 853.507 829.451 851.594 830.633 850.413C831.815 849.233 833.73 849.233 834.91 850.413Z" fill="#F9DEB1"/>
<path d="M851.736 833.592C852.918 834.773 852.918 836.685 851.736 837.867C850.555 839.048 848.642 839.048 847.46 837.867C846.28 836.685 846.28 834.773 847.46 833.592C848.642 832.412 850.556 832.412 851.736 833.592Z" fill="#F9DEB1"/>
<path d="M868.563 816.771C869.745 817.95 869.745 819.865 868.563 821.046C867.383 822.228 865.468 822.228 864.287 821.046C863.105 819.867 863.105 817.952 864.287 816.771C865.468 815.591 867.383 815.591 868.563 816.771Z" fill="#F9DEB1"/>
<path d="M885.392 799.95C886.574 801.132 886.574 803.044 885.392 804.225C884.212 805.407 882.297 805.407 881.115 804.225C879.933 803.046 879.933 801.132 881.115 799.95C882.295 798.771 884.21 798.771 885.392 799.95Z" fill="#F9DEB1"/>
<path d="M902.219 783.129C903.4 784.311 903.4 786.223 902.219 787.405C901.037 788.586 899.124 788.586 897.942 787.405C896.762 786.223 896.762 784.311 897.942 783.129C899.122 781.95 901.037 781.95 902.219 783.129Z" fill="#F9DEB1"/>
<path d="M919.045 766.308C920.225 767.488 920.225 769.402 919.045 770.584C917.865 771.763 915.95 771.763 914.769 770.584C913.587 769.402 913.587 767.49 914.769 766.308C915.948 765.127 917.863 765.127 919.045 766.308Z" fill="#F9DEB1"/>
<path d="M857.13 704.414C858.31 705.594 858.31 707.508 857.13 708.69C855.948 709.871 854.035 709.871 852.853 708.69C851.673 707.51 851.673 705.596 852.853 704.414C854.033 703.233 855.948 703.233 857.13 704.414Z" fill="#F9DEB1"/>
<path d="M873.957 687.594C875.137 688.773 875.137 690.687 873.957 691.869C872.775 693.05 870.862 693.05 869.68 691.869C868.498 690.689 868.498 688.775 869.68 687.594C870.86 686.412 872.775 686.412 873.957 687.594Z" fill="#F9DEB1"/>
<path d="M890.783 670.771C891.965 671.952 891.965 673.865 890.783 675.046C889.603 676.226 887.688 676.226 886.507 675.046C885.325 673.865 885.325 671.952 886.507 670.771C887.687 669.591 889.601 669.591 890.783 670.771Z" fill="#F9DEB1"/>
<path d="M907.61 653.95C908.792 655.13 908.792 657.044 907.61 658.225C906.428 659.407 904.515 659.407 903.333 658.225C902.151 657.046 902.151 655.132 903.333 653.95C904.515 652.771 906.428 652.771 907.61 653.95Z" fill="#F9DEB1"/>
<path d="M924.437 637.129C925.617 638.309 925.617 640.223 924.437 641.405C923.255 642.586 921.342 642.586 920.16 641.405C918.98 640.223 918.98 638.311 920.16 637.129C921.342 635.95 923.257 635.95 924.437 637.129Z" fill="#F9DEB1"/>
<path d="M939.126 625.468C940.796 625.468 942.15 624.115 942.15 622.445C942.15 620.776 940.796 619.422 939.126 619.422C937.456 619.422 936.102 620.776 936.102 622.445C936.102 624.115 937.456 625.468 939.126 625.468Z" fill="#F9DEB1"/>
<path d="M958.09 603.488C959.272 604.669 959.272 606.581 958.09 607.763C956.908 608.942 954.995 608.942 953.813 607.763C952.632 606.581 952.632 604.669 953.813 603.488C954.995 602.306 956.91 602.306 958.09 603.488Z" fill="#F9DEB1"/>
<path d="M974.919 586.666C976.099 587.848 976.099 589.76 974.919 590.942C973.737 592.123 971.824 592.123 970.642 590.942C969.462 589.76 969.462 587.848 970.642 586.666C971.822 585.485 973.737 585.485 974.919 586.666Z" fill="#F9DEB1"/>
<path d="M989.606 575.005C991.276 575.005 992.63 573.652 992.63 571.982C992.63 570.313 991.276 568.959 989.606 568.959C987.936 568.959 986.583 570.313 986.583 571.982C986.583 573.652 987.936 575.005 989.606 575.005Z" fill="#F9DEB1"/>
<path d="M1008.57 553.023C1009.75 554.204 1009.75 556.117 1008.57 557.298C1007.39 558.478 1005.48 558.478 1004.3 557.298C1003.12 556.117 1003.12 554.204 1004.3 553.023C1005.48 551.843 1007.39 551.843 1008.57 553.023Z" fill="#F9DEB1"/>
<path d="M1025.4 536.202C1026.58 537.382 1026.58 539.296 1025.4 540.477C1024.22 541.659 1022.3 541.659 1021.12 540.477C1019.94 539.296 1019.94 537.384 1021.12 536.202C1022.3 535.022 1024.22 535.022 1025.4 536.202Z" fill="#F9DEB1"/>
<path d="M1040.09 524.543C1041.76 524.543 1043.11 523.189 1043.11 521.52C1043.11 519.85 1041.76 518.497 1040.09 518.497C1038.42 518.497 1037.06 519.85 1037.06 521.52C1037.06 523.189 1038.42 524.543 1040.09 524.543Z" fill="#F9DEB1"/>
<path d="M877.767 725.044C878.947 726.226 878.947 728.138 877.767 729.32C876.585 730.501 874.672 730.501 873.49 729.32C872.31 728.138 872.31 726.226 873.49 725.044C874.672 723.865 876.587 723.865 877.767 725.044Z" fill="#F9DEB1"/>
<path d="M894.594 708.224C895.776 709.403 895.776 711.317 894.594 712.499C893.414 713.68 891.499 713.68 890.317 712.499C889.135 711.319 889.135 709.405 890.317 708.224C891.499 707.044 893.414 707.044 894.594 708.224Z" fill="#F9DEB1"/>
<path d="M911.422 691.403C912.604 692.582 912.604 694.496 911.422 695.678C910.241 696.859 908.328 696.859 907.146 695.678C905.964 694.498 905.964 692.584 907.146 691.403C908.326 690.223 910.241 690.223 911.422 691.403Z" fill="#F9DEB1"/>
<path d="M926.11 679.741C927.78 679.741 929.134 678.388 929.134 676.719C929.134 675.049 927.78 673.696 926.11 673.696C924.44 673.696 923.086 675.049 923.086 676.719C923.086 678.388 924.44 679.741 926.11 679.741Z" fill="#F9DEB1"/>
<path d="M945.076 657.761C946.258 658.943 946.258 660.855 945.076 662.036C943.896 663.216 941.981 663.216 940.799 662.036C939.617 660.855 939.617 658.943 940.799 657.761C941.979 656.58 943.894 656.58 945.076 657.761Z" fill="#F9DEB1"/>
<path d="M961.903 640.94C963.085 642.122 963.085 644.034 961.903 645.216C960.721 646.397 958.808 646.397 957.626 645.216C956.444 644.034 956.444 642.122 957.626 640.94C958.808 639.759 960.721 639.759 961.903 640.94Z" fill="#F9DEB1"/>
<path d="M978.729 624.12C979.909 625.301 979.909 627.213 978.729 628.395C977.547 629.576 975.635 629.576 974.453 628.395C973.273 627.215 973.273 625.301 974.453 624.12C975.635 622.938 977.549 622.938 978.729 624.12Z" fill="#F9DEB1"/>
<path d="M995.556 607.297C996.738 608.478 996.738 610.391 995.556 611.572C994.376 612.752 992.461 612.752 991.279 611.572C990.099 610.391 990.099 608.478 991.279 607.297C992.461 606.117 994.376 606.117 995.556 607.297Z" fill="#F9DEB1"/>
<path d="M1012.38 590.475C1013.56 591.655 1013.56 593.569 1012.38 594.751C1011.2 595.932 1009.29 595.932 1008.11 594.751C1006.93 593.569 1006.93 591.657 1008.11 590.475C1009.29 589.296 1011.2 589.296 1012.38 590.475Z" fill="#F9DEB1"/>
<path d="M1029.21 573.655C1030.39 574.834 1030.39 576.748 1029.21 577.93C1028.03 579.111 1026.12 579.111 1024.93 577.93C1023.75 576.75 1023.75 574.836 1024.93 573.655C1026.11 572.475 1028.03 572.475 1029.21 573.655Z" fill="#F9DEB1"/>
<path d="M1046.04 556.834C1047.22 558.015 1047.22 559.928 1046.04 561.109C1044.86 562.289 1042.94 562.289 1041.76 561.109C1040.58 559.928 1040.58 558.015 1041.76 556.834C1042.94 555.654 1044.86 555.654 1046.04 556.834Z" fill="#F9DEB1"/>
<path d="M1062.86 540.013C1064.05 541.193 1064.05 543.107 1062.86 544.288C1061.68 545.468 1059.77 545.468 1058.59 544.288C1057.41 543.107 1057.41 541.195 1058.59 540.013C1059.77 538.834 1061.68 538.834 1062.86 540.013Z" fill="#F9DEB1"/>
<path d="M898.406 745.676C899.588 746.856 899.588 748.77 898.406 749.951C897.224 751.133 895.311 751.133 894.13 749.951C892.948 748.772 892.948 746.858 894.13 745.676C895.311 744.497 897.226 744.497 898.406 745.676Z" fill="#F9DEB1"/>
<path d="M915.233 728.855C916.413 730.037 916.413 731.949 915.233 733.131C914.053 734.31 912.138 734.31 910.956 733.131C909.776 731.949 909.776 730.037 910.956 728.855C912.138 727.674 914.053 727.674 915.233 728.855Z" fill="#F9DEB1"/>
<path d="M932.06 712.035C933.24 713.214 933.24 715.128 932.06 716.31C930.878 717.489 928.965 717.489 927.783 716.31C926.603 715.128 926.603 713.216 927.783 712.035C928.965 710.853 930.88 710.853 932.06 712.035Z" fill="#F9DEB1"/>
<path d="M948.887 695.214C950.068 696.393 950.068 698.307 948.887 699.489C947.707 700.67 945.792 700.67 944.61 699.489C943.428 698.307 943.428 696.395 944.61 695.214C945.792 694.032 947.707 694.032 948.887 695.214Z" fill="#F9DEB1"/>
<path d="M965.715 678.393C966.897 679.574 966.897 681.487 965.715 682.668C964.533 683.848 962.62 683.848 961.438 682.668C960.257 681.487 960.257 679.574 961.438 678.393C962.618 677.211 964.533 677.211 965.715 678.393Z" fill="#F9DEB1"/>
<path d="M982.542 661.57C983.724 662.752 983.724 664.664 982.542 665.845C981.362 667.025 979.447 667.025 978.265 665.845C977.085 664.664 977.085 662.752 978.265 661.57C979.445 660.391 981.36 660.391 982.542 661.57Z" fill="#F9DEB1"/>
<path d="M999.369 644.749C1000.55 645.929 1000.55 647.843 999.369 649.025C998.187 650.206 996.274 650.206 995.092 649.025C993.91 647.843 993.91 645.931 995.092 644.749C996.274 643.57 998.187 643.57 999.369 644.749Z" fill="#F9DEB1"/>
<path d="M1016.2 627.928C1017.38 629.108 1017.38 631.022 1016.2 632.203C1015.02 633.385 1013.1 633.385 1011.92 632.203C1010.74 631.024 1010.74 629.11 1011.92 627.928C1013.1 626.749 1015.02 626.749 1016.2 627.928Z" fill="#F9DEB1"/>
<path d="M1033.02 611.107C1034.2 612.289 1034.2 614.201 1033.02 615.383C1031.84 616.562 1029.93 616.562 1028.75 615.383C1027.56 614.201 1027.56 612.289 1028.75 611.107C1029.93 609.928 1031.84 609.928 1033.02 611.107Z" fill="#F9DEB1"/>
<path d="M1049.85 594.287C1051.03 595.466 1051.03 597.38 1049.85 598.562C1048.67 599.743 1046.75 599.743 1045.57 598.562C1044.39 597.38 1044.39 595.468 1045.57 594.287C1046.75 593.107 1048.67 593.107 1049.85 594.287Z" fill="#F9DEB1"/>
<path d="M1066.68 577.466C1067.86 578.645 1067.86 580.559 1066.68 581.741C1065.49 582.922 1063.58 582.922 1062.4 581.741C1061.22 580.559 1061.22 578.647 1062.4 577.466C1063.58 576.284 1065.5 576.284 1066.68 577.466Z" fill="#F9DEB1"/>
<path d="M1083.5 560.645C1084.68 561.826 1084.68 563.739 1083.5 564.92C1082.32 566.1 1080.41 566.1 1079.23 564.92C1078.05 563.739 1078.05 561.826 1079.23 560.645C1080.41 559.463 1082.32 559.463 1083.5 560.645Z" fill="#F9DEB1"/>
<path d="M919.045 766.308C920.225 767.488 920.225 769.402 919.045 770.584C917.865 771.763 915.95 771.763 914.769 770.584C913.587 769.402 913.587 767.49 914.769 766.308C915.948 765.127 917.863 765.127 919.045 766.308Z" fill="#F9DEB1"/>
<path d="M935.872 749.488C937.052 750.667 937.052 752.581 935.872 753.763C934.69 754.944 932.777 754.944 931.595 753.763C930.413 752.583 930.413 750.669 931.595 749.488C932.777 748.306 934.69 748.306 935.872 749.488Z" fill="#F9DEB1"/>
<path d="M950.561 737.826C952.231 737.826 953.585 736.473 953.585 734.804C953.585 733.134 952.231 731.781 950.561 731.781C948.891 731.781 947.537 733.134 947.537 734.804C947.537 736.473 948.891 737.826 950.561 737.826Z" fill="#F9DEB1"/>
<path d="M969.525 715.844C970.707 717.026 970.707 718.938 969.525 720.119C968.345 721.299 966.431 721.299 965.249 720.119C964.069 718.938 964.069 717.026 965.249 715.844C966.431 714.665 968.345 714.665 969.525 715.844Z" fill="#F9DEB1"/>
<path d="M986.352 699.023C987.532 700.203 987.532 702.117 986.352 703.299C985.172 704.48 983.257 704.48 982.075 703.299C980.895 702.117 980.895 700.205 982.075 699.023C983.257 697.844 985.172 697.844 986.352 699.023Z" fill="#F9DEB1"/>
<path d="M1003.18 682.202C1004.36 683.384 1004.36 685.296 1003.18 686.478C1002 687.659 1000.08 687.659 998.902 686.478C997.722 685.298 997.722 683.384 998.902 682.202C1000.08 681.021 1002 681.023 1003.18 682.202Z" fill="#F9DEB1"/>
<path d="M1020.01 665.382C1021.19 666.563 1021.19 668.475 1020.01 669.657C1018.83 670.837 1016.91 670.837 1015.73 669.657C1014.55 668.475 1014.55 666.563 1015.73 665.382C1016.91 664.202 1018.83 664.202 1020.01 665.382Z" fill="#F9DEB1"/>
<path d="M1036.83 648.561C1038.02 649.741 1038.02 651.655 1036.83 652.836C1035.65 654.018 1033.74 654.018 1032.56 652.836C1031.38 651.655 1031.38 649.742 1032.56 648.561C1033.74 647.381 1035.65 647.381 1036.83 648.561Z" fill="#F9DEB1"/>
<path d="M1053.66 631.74C1054.84 632.919 1054.84 634.833 1053.66 636.015C1052.48 637.196 1050.57 637.196 1049.38 636.015C1048.2 634.835 1048.2 632.921 1049.38 631.74C1050.56 630.558 1052.48 630.558 1053.66 631.74Z" fill="#F9DEB1"/>
<path d="M1070.49 614.919C1071.67 616.1 1071.67 618.013 1070.49 619.194C1069.31 620.374 1067.39 620.374 1066.21 619.194C1065.03 618.013 1065.03 616.1 1066.21 614.919C1067.39 613.737 1069.31 613.737 1070.49 614.919Z" fill="#F9DEB1"/>
<path d="M1087.31 598.098C1088.49 599.278 1088.49 601.192 1087.31 602.373C1086.13 603.553 1084.22 603.553 1083.04 602.373C1081.86 601.192 1081.86 599.28 1083.04 598.098C1084.22 596.917 1086.13 596.917 1087.31 598.098Z" fill="#F9DEB1"/>
<path d="M1102 586.437C1103.67 586.437 1105.03 585.083 1105.03 583.414C1105.03 581.744 1103.67 580.391 1102 580.391C1100.33 580.391 1098.98 581.744 1098.98 583.414C1098.98 585.083 1100.33 586.437 1102 586.437Z" fill="#F9DEB1"/>
<path d="M11.3412 404.41C13.0112 404.41 14.365 403.057 14.365 401.388C14.365 399.718 13.0112 398.365 11.3412 398.365C9.67119 398.365 8.31738 399.718 8.31738 401.388C8.31738 403.057 9.67119 404.41 11.3412 404.41Z" fill="#4ECDC4"/>
<path d="M30.3072 382.428C31.4891 383.61 31.4891 385.522 30.3072 386.703C29.1253 387.883 27.2124 387.883 26.0305 386.703C24.8505 385.524 24.8505 383.61 26.0305 382.428C27.2105 381.249 29.1253 381.249 30.3072 382.428Z" fill="#4ECDC4"/>
<path d="M47.1343 365.607C48.3143 366.786 48.3143 368.701 47.1343 369.882C45.9544 371.062 44.0395 371.062 42.8576 369.882C41.6777 368.701 41.6777 366.788 42.8576 365.607C44.0395 364.427 45.9544 364.427 47.1343 365.607Z" fill="#4ECDC4"/>
<path d="M61.8236 353.947C63.4936 353.947 64.8474 352.594 64.8474 350.925C64.8474 349.255 63.4936 347.902 61.8236 347.902C60.1536 347.902 58.7998 349.255 58.7998 350.925C58.7998 352.594 60.1536 353.947 61.8236 353.947Z" fill="#4ECDC4"/>
<path d="M78.6503 337.127C80.3203 337.127 81.6741 335.773 81.6741 334.104C81.6741 332.434 80.3203 331.081 78.6503 331.081C76.9803 331.081 75.6265 332.434 75.6265 334.104C75.6265 335.773 76.9803 337.127 78.6503 337.127Z" fill="#4ECDC4"/>
<path d="M97.6143 315.144C98.7943 316.324 98.7943 318.238 97.6143 319.42C96.4344 320.601 94.5195 320.601 93.3376 319.42C92.1576 318.24 92.1576 316.326 93.3376 315.144C94.5195 313.963 96.4344 313.963 97.6143 315.144Z" fill="#4ECDC4"/>
<path d="M112.304 303.483C113.974 303.483 115.327 302.13 115.327 300.46C115.327 298.791 113.974 297.438 112.304 297.438C110.634 297.438 109.28 298.791 109.28 300.46C109.28 302.13 110.634 303.483 112.304 303.483Z" fill="#4ECDC4"/>
<path d="M0.464659 453.524C1.64464 454.704 1.64464 456.618 0.464659 457.8C-0.715321 458.979 -2.63015 458.979 -3.81205 457.8C-4.99395 456.62 -4.99203 454.706 -3.81205 453.524C-2.63015 452.343 -0.715321 452.343 0.464659 453.524Z" fill="#4ECDC4"/>
<path d="M17.2911 436.702C18.473 437.883 18.473 439.795 17.2911 440.977C16.1111 442.156 14.1963 442.156 13.0144 440.977C11.8344 439.795 11.8344 437.883 13.0144 436.702C14.1963 435.522 16.1111 435.522 17.2911 436.702Z" fill="#4ECDC4"/>
<path d="M34.1177 419.881C35.2977 421.06 35.2977 422.975 34.1177 424.156C32.9378 425.336 31.0229 425.336 29.841 424.156C28.6611 422.975 28.6611 421.062 29.841 419.881C31.0229 418.701 32.9378 418.701 34.1177 419.881Z" fill="#4ECDC4"/>
<path d="M50.9449 403.06C52.1249 404.241 52.1249 406.154 50.9449 407.335C49.7649 408.515 47.8501 408.515 46.6682 407.335C45.4882 406.154 45.4882 404.241 46.6682 403.06C47.8501 401.88 49.7649 401.88 50.9449 403.06Z" fill="#4ECDC4"/>
<path d="M65.6342 391.4C67.3042 391.4 68.658 390.047 68.658 388.377C68.658 386.708 67.3042 385.354 65.6342 385.354C63.9642 385.354 62.6104 386.708 62.6104 388.377C62.6104 390.047 63.9642 391.4 65.6342 391.4Z" fill="#4ECDC4"/>
<path d="M84.6002 369.418C85.7821 370.597 85.7821 372.512 84.6002 373.693C83.4183 374.875 81.5054 374.875 80.3235 373.693C79.1435 372.514 79.1435 370.599 80.3235 369.418C81.5034 368.236 83.4183 368.236 84.6002 369.418Z" fill="#4ECDC4"/>
<path d="M101.427 352.597C102.609 353.777 102.609 355.691 101.427 356.872C100.247 358.054 98.332 358.054 97.1501 356.872C95.9682 355.693 95.9682 353.779 97.1501 352.597C98.332 351.416 100.247 351.416 101.427 352.597Z" fill="#4ECDC4"/>
<path d="M116.116 340.936C117.786 340.936 119.14 339.582 119.14 337.913C119.14 336.243 117.786 334.89 116.116 334.89C114.446 334.89 113.092 336.243 113.092 337.913C113.092 339.582 114.446 340.936 116.116 340.936Z" fill="#4ECDC4"/>
<path d="M135.08 318.955C136.26 320.137 136.26 322.049 135.08 323.231C133.9 324.41 131.985 324.41 130.803 323.231C129.623 322.051 129.623 320.137 130.803 318.955C131.985 317.774 133.9 317.774 135.08 318.955Z" fill="#4ECDC4"/>
<path d="M4.27693 490.977C5.45691 492.157 5.45691 494.071 4.27693 495.252C3.09503 496.432 1.18212 496.432 0.000219405 495.252C-1.17976 494.071 -1.17976 492.158 0.000219405 490.977C1.1802 489.795 3.09503 489.795 4.27693 490.977Z" fill="#4ECDC4"/>
<path d="M21.1036 474.154C22.2835 475.334 22.2835 477.248 21.1036 478.429C19.9217 479.609 18.0088 479.609 16.8269 478.429C15.645 477.25 15.645 475.336 16.8269 474.154C18.0068 472.975 19.9217 472.975 21.1036 474.154Z" fill="#4ECDC4"/>
<path d="M37.9302 457.333C39.1121 458.513 39.1121 460.427 37.9302 461.609C36.7503 462.788 34.8354 462.788 33.6535 461.609C32.4736 460.427 32.4736 458.515 33.6535 457.333C34.8354 456.154 36.7483 456.154 37.9302 457.333Z" fill="#4ECDC4"/>
<path d="M54.7569 440.513C55.9369 441.694 55.9369 443.606 54.7569 444.788C53.5769 445.969 51.6621 445.969 50.4802 444.788C49.2983 443.608 49.2983 441.694 50.4802 440.513C51.6621 439.333 53.5769 439.333 54.7569 440.513Z" fill="#4ECDC4"/>
<path d="M71.5836 423.692C72.7655 424.871 72.7655 426.786 71.5836 427.967C70.4036 429.147 68.4888 429.147 67.3069 427.967C66.1269 426.786 66.1269 424.873 67.3069 423.692C68.4888 422.512 70.4036 422.512 71.5836 423.692Z" fill="#4ECDC4"/>
<path d="M88.4102 406.87C89.5921 408.052 89.5921 409.964 88.4102 411.146C87.2302 412.327 85.3154 412.327 84.1335 411.146C82.9535 409.966 82.9535 408.052 84.1335 406.87C85.3154 405.689 87.2302 405.689 88.4102 406.87Z" fill="#4ECDC4"/>
<path d="M105.237 390.05C106.419 391.229 106.419 393.143 105.237 394.325C104.057 395.506 102.142 395.506 100.96 394.325C99.7783 393.145 99.7783 391.231 100.96 390.05C102.142 388.868 104.057 388.868 105.237 390.05Z" fill="#4ECDC4"/>
<path d="M122.065 373.229C123.245 374.408 123.245 376.323 122.065 377.504C120.884 378.686 118.971 378.686 117.789 377.504C116.607 376.325 116.607 374.41 117.789 373.229C118.969 372.047 120.884 372.047 122.065 373.229Z" fill="#4ECDC4"/>
<path d="M136.753 361.568C138.423 361.568 139.777 360.214 139.777 358.545C139.777 356.875 138.423 355.522 136.753 355.522C135.083 355.522 133.729 356.875 133.729 358.545C133.729 360.214 135.083 361.568 136.753 361.568Z" fill="#4ECDC4"/>
<path d="M153.581 344.747C155.251 344.747 156.605 343.393 156.605 341.724C156.605 340.055 155.251 338.701 153.581 338.701C151.911 338.701 150.558 340.055 150.558 341.724C150.558 343.393 151.911 344.747 153.581 344.747Z" fill="#4ECDC4"/>
<path d="M8.08771 528.428C9.26769 529.608 9.26769 531.522 8.08771 532.703C6.90581 533.885 4.9929 533.885 3.811 532.703C2.6291 531.522 2.63102 529.61 3.811 528.428C4.9929 527.249 6.90773 527.249 8.08771 528.428Z" fill="#4ECDC4"/>
<path d="M22.7767 516.769C24.4468 516.769 25.8006 515.415 25.8006 513.746C25.8006 512.077 24.4468 510.723 22.7767 510.723C21.1067 510.723 19.7529 512.077 19.7529 513.746C19.7529 515.415 21.1067 516.769 22.7767 516.769Z" fill="#4ECDC4"/>
<path d="M41.7427 494.787C42.9227 495.968 42.9227 497.88 41.7427 499.062C40.5628 500.243 38.6479 500.243 37.466 499.062C36.2861 497.88 36.2861 495.968 37.466 494.787C38.646 493.607 40.5608 493.607 41.7427 494.787Z" fill="#4ECDC4"/>
<path d="M58.5694 477.966C59.7494 479.145 59.7494 481.059 58.5694 482.241C57.3875 483.421 55.4746 483.421 54.2927 482.241C53.1127 481.059 53.1127 479.147 54.2927 477.966C55.4727 476.786 57.3875 476.786 58.5694 477.966Z" fill="#4ECDC4"/>
<path d="M73.2567 466.304C74.9267 466.304 76.2805 464.951 76.2805 463.282C76.2805 461.612 74.9267 460.259 73.2567 460.259C71.5867 460.259 70.2329 461.612 70.2329 463.282C70.2329 464.951 71.5867 466.304 73.2567 466.304Z" fill="#4ECDC4"/>
<path d="M92.2232 444.324C93.4032 445.506 93.4032 447.418 92.2232 448.599C91.0413 449.781 89.1284 449.781 87.9465 448.599C86.7665 447.42 86.7665 445.506 87.9465 444.324C89.1284 443.143 91.0432 443.143 92.2232 444.324Z" fill="#4ECDC4"/>
<path d="M109.05 427.503C110.23 428.682 110.23 430.597 109.05 431.778C107.868 432.96 105.955 432.96 104.773 431.778C103.591 430.598 103.591 428.684 104.773 427.503C105.955 426.321 107.87 426.321 109.05 427.503Z" fill="#4ECDC4"/>
<path d="M123.739 415.841C125.409 415.841 126.763 414.488 126.763 412.819C126.763 411.149 125.409 409.796 123.739 409.796C122.069 409.796 120.715 411.149 120.715 412.819C120.715 414.488 122.069 415.841 123.739 415.841Z" fill="#4ECDC4"/>
<path d="M140.566 399.021C142.236 399.021 143.59 397.667 143.59 395.998C143.59 394.328 142.236 392.975 140.566 392.975C138.896 392.975 137.542 394.328 137.542 395.998C137.542 397.667 138.896 399.021 140.566 399.021Z" fill="#4ECDC4"/>
<path d="M159.532 377.038C160.712 378.22 160.712 380.132 159.532 381.314C158.352 382.493 156.437 382.493 155.255 381.314C154.075 380.134 154.075 378.22 155.255 377.038C156.435 375.859 158.35 375.859 159.532 377.038Z" fill="#4ECDC4"/>
<path d="M176.358 360.218C177.54 361.397 177.54 363.311 176.358 364.493C175.177 365.672 173.264 365.672 172.082 364.493C170.902 363.311 170.902 361.399 172.082 360.218C173.262 359.038 175.177 359.038 176.358 360.218Z" fill="#4ECDC4"/>
<path d="M112.304 303.483C113.974 303.483 115.327 302.13 115.327 300.46C115.327 298.791 113.974 297.438 112.304 297.438C110.634 297.438 109.28 298.791 109.28 300.46C109.28 302.13 110.634 303.483 112.304 303.483Z" fill="#4ECDC4"/>
<path d="M131.27 281.503C132.45 282.682 132.45 284.597 131.27 285.778C130.09 286.958 128.175 286.958 126.993 285.778C125.811 284.597 125.811 282.684 126.993 281.503C128.173 280.321 130.088 280.321 131.27 281.503Z" fill="#4ECDC4"/>
<path d="M148.096 264.682C149.276 265.864 149.276 267.776 148.096 268.957C146.916 270.137 145.001 270.137 143.82 268.957C142.64 267.778 142.64 265.864 143.82 264.682C145 263.501 146.914 263.501 148.096 264.682Z" fill="#4ECDC4"/>
<path d="M162.784 253.021C164.454 253.021 165.807 251.667 165.807 249.998C165.807 248.328 164.454 246.975 162.784 246.975C161.114 246.975 159.76 248.328 159.76 249.998C159.76 251.667 161.114 253.021 162.784 253.021Z" fill="#4ECDC4"/>
<path d="M179.612 236.2C181.282 236.2 182.636 234.846 182.636 233.177C182.636 231.508 181.282 230.154 179.612 230.154C177.942 230.154 176.588 231.508 176.588 233.177C176.588 234.846 177.942 236.2 179.612 236.2Z" fill="#4ECDC4"/>
<path d="M198.576 214.218C199.758 215.399 199.758 217.311 198.576 218.493C197.394 219.674 195.481 219.674 194.3 218.493C193.118 217.313 193.118 215.399 194.3 214.218C195.481 213.038 197.396 213.038 198.576 214.218Z" fill="#4ECDC4"/>
<path d="M215.403 197.397C216.583 198.578 216.583 200.491 215.403 201.672C214.221 202.854 212.309 202.854 211.127 201.672C209.945 200.493 209.945 198.578 211.127 197.397C212.309 196.217 214.223 196.217 215.403 197.397Z" fill="#4ECDC4"/>
<path d="M230.093 185.735C231.763 185.735 233.116 184.382 233.116 182.712C233.116 181.043 231.763 179.689 230.093 179.689C228.423 179.689 227.069 181.043 227.069 182.712C227.069 184.382 228.423 185.735 230.093 185.735Z" fill="#4ECDC4"/>
<path d="M249.057 163.755C250.239 164.936 250.239 166.849 249.057 168.03C247.877 169.21 245.962 169.21 244.78 168.03C243.6 166.85 243.6 164.936 244.78 163.755C245.962 162.573 247.877 162.573 249.057 163.755Z" fill="#4ECDC4"/>
<path d="M265.885 146.934C267.065 148.115 267.065 150.028 265.885 151.209C264.705 152.391 262.79 152.391 261.608 151.209C260.426 150.028 260.428 148.115 261.608 146.934C262.788 145.752 264.703 145.752 265.885 146.934Z" fill="#4ECDC4"/>
<path d="M280.573 135.273C282.243 135.273 283.596 133.919 283.596 132.25C283.596 130.58 282.243 129.227 280.573 129.227C278.903 129.227 277.549 130.58 277.549 132.25C277.549 133.919 278.903 135.273 280.573 135.273Z" fill="#4ECDC4"/>
<path d="M299.539 113.29C300.719 114.47 300.719 116.384 299.539 117.566C298.357 118.745 296.444 118.745 295.262 117.566C294.082 116.386 294.082 114.472 295.262 113.29C296.444 112.111 298.357 112.111 299.539 113.29Z" fill="#4ECDC4"/>
<path d="M135.08 318.955C136.26 320.137 136.26 322.049 135.08 323.231C133.9 324.41 131.985 324.41 130.803 323.231C129.623 322.051 129.623 320.137 130.803 318.955C131.985 317.774 133.9 317.774 135.08 318.955Z" fill="#4ECDC4"/>
<path d="M149.769 307.294C151.439 307.294 152.793 305.941 152.793 304.271C152.793 302.602 151.439 301.249 149.769 301.249C148.099 301.249 146.746 302.602 146.746 304.271C146.746 305.941 148.099 307.294 149.769 307.294Z" fill="#4ECDC4"/>
<path d="M168.733 285.312C169.915 286.493 169.915 288.406 168.733 289.587C167.552 290.767 165.639 290.767 164.457 289.587C163.277 288.406 163.277 286.493 164.457 285.312C165.639 284.132 167.553 284.132 168.733 285.312Z" fill="#4ECDC4"/>
<path d="M185.562 268.491C186.744 269.671 186.744 271.585 185.562 272.766C184.38 273.946 182.467 273.946 181.285 272.766C180.103 271.587 180.103 269.673 181.285 268.491C182.465 267.312 184.38 267.312 185.562 268.491Z" fill="#4ECDC4"/>
<path d="M202.389 251.67C203.569 252.852 203.569 254.764 202.389 255.946C201.207 257.127 199.294 257.127 198.112 255.946C196.93 254.766 196.93 252.852 198.112 251.67C199.292 250.491 201.207 250.491 202.389 251.67Z" fill="#4ECDC4"/>
<path d="M219.215 234.849C220.395 236.031 220.395 237.943 219.215 239.125C218.033 240.306 216.121 240.306 214.939 239.125C213.757 237.943 213.757 236.031 214.939 234.849C216.121 233.668 218.033 233.668 219.215 234.849Z" fill="#4ECDC4"/>
<path d="M236.042 218.029C237.224 219.21 237.224 221.122 236.042 222.304C234.86 223.483 232.947 223.483 231.765 222.304C230.585 221.124 230.585 219.21 231.765 218.029C232.947 216.847 234.862 216.847 236.042 218.029Z" fill="#4ECDC4"/>
<path d="M252.869 201.207C254.051 202.389 254.051 204.301 252.869 205.483C251.689 206.664 249.774 206.664 248.592 205.483C247.411 204.301 247.411 202.389 248.592 201.207C249.774 200.026 251.689 200.026 252.869 201.207Z" fill="#4ECDC4"/>
<path d="M269.696 184.385C270.876 185.566 270.876 187.478 269.696 188.66C268.516 189.839 266.601 189.839 265.419 188.66C264.237 187.478 264.237 185.566 265.419 184.385C266.601 183.205 268.516 183.205 269.696 184.385Z" fill="#4ECDC4"/>
<path d="M286.523 167.564C287.704 168.743 287.704 170.658 286.523 171.839C285.343 173.019 283.428 173.019 282.246 171.839C281.066 170.658 281.066 168.745 282.246 167.564C283.428 166.384 285.343 166.384 286.523 167.564Z" fill="#4ECDC4"/>
<path d="M303.351 150.743C304.531 151.925 304.531 153.837 303.351 155.018C302.169 156.2 300.256 156.2 299.074 155.018C297.894 153.839 297.894 151.925 299.074 150.743C300.254 149.564 302.169 149.564 303.351 150.743Z" fill="#4ECDC4"/>
<path d="M320.178 133.922C321.358 135.104 321.358 137.016 320.178 138.198C318.998 139.379 317.083 139.379 315.901 138.198C314.721 137.016 314.721 135.104 315.901 133.922C317.081 132.743 318.996 132.743 320.178 133.922Z" fill="#4ECDC4"/>
<path d="M153.582 344.747C155.252 344.747 156.606 343.393 156.606 341.724C156.606 340.055 155.252 338.701 153.582 338.701C151.912 338.701 150.558 340.055 150.558 341.724C150.558 343.393 151.912 344.747 153.582 344.747Z" fill="#4ECDC4"/>
<path d="M172.546 322.765C173.728 323.946 173.728 325.858 172.546 327.04C171.364 328.219 169.451 328.219 168.269 327.04C167.089 325.86 167.089 323.946 168.269 322.765C169.451 321.585 171.366 321.585 172.546 322.765Z" fill="#4ECDC4"/>
<path d="M189.373 305.944C190.553 307.125 190.553 309.038 189.373 310.219C188.191 311.399 186.278 311.399 185.096 310.219C183.914 309.038 183.914 307.125 185.096 305.944C186.278 304.764 188.193 304.764 189.373 305.944Z" fill="#4ECDC4"/>
<path d="M206.199 289.123C207.381 290.304 207.381 292.217 206.199 293.398C205.017 294.58 203.104 294.58 201.923 293.398C200.741 292.219 200.741 290.304 201.923 289.123C203.104 287.941 205.019 287.941 206.199 289.123Z" fill="#4ECDC4"/>
<path d="M223.028 272.302C224.21 273.482 224.21 275.396 223.028 276.577C221.846 277.757 219.933 277.757 218.751 276.577C217.571 275.398 217.571 273.484 218.751 272.302C219.931 271.121 221.846 271.121 223.028 272.302Z" fill="#4ECDC4"/>
<path d="M239.855 255.481C241.036 256.661 241.036 258.575 239.855 259.757C238.675 260.938 236.76 260.938 235.578 259.757C234.396 258.577 234.396 256.663 235.578 255.481C236.758 254.3 238.673 254.3 239.855 255.481Z" fill="#4ECDC4"/>
<path d="M256.682 238.661C257.862 239.84 257.862 241.754 256.682 242.936C255.502 244.117 253.587 244.117 252.405 242.936C251.225 241.754 251.225 239.842 252.405 238.661C253.585 237.479 255.5 237.479 256.682 238.661Z" fill="#4ECDC4"/>
<path d="M273.508 221.837C274.688 223.019 274.688 224.931 273.508 226.113C272.326 227.292 270.414 227.292 269.232 226.113C268.05 224.933 268.05 223.019 269.232 221.837C270.414 220.658 272.326 220.658 273.508 221.837Z" fill="#4ECDC4"/>
<path d="M290.335 205.017C291.515 206.198 291.515 208.11 290.335 209.292C289.155 210.473 287.24 210.473 286.058 209.292C284.876 208.11 284.876 206.198 286.058 205.017C287.24 203.837 289.155 203.837 290.335 205.017Z" fill="#4ECDC4"/>
<path d="M307.162 188.196C308.344 189.377 308.344 191.289 307.162 192.471C305.982 193.652 304.067 193.652 302.885 192.471C301.703 191.289 301.703 189.377 302.885 188.196C304.067 187.016 305.982 187.016 307.162 188.196Z" fill="#4ECDC4"/>
<path d="M323.988 171.375C325.168 172.556 325.168 174.469 323.988 175.65C322.808 176.83 320.894 176.83 319.712 175.65C318.532 174.469 318.532 172.556 319.712 171.375C320.892 170.193 322.808 170.193 323.988 171.375Z" fill="#4ECDC4"/>
<path d="M340.815 154.554C341.997 155.734 341.997 157.648 340.815 158.829C339.635 160.011 337.72 160.011 336.538 158.829C335.358 157.648 335.358 155.736 336.538 154.554C337.72 153.373 339.635 153.373 340.815 154.554Z" fill="#4ECDC4"/>
<path d="M176.358 360.218C177.54 361.397 177.54 363.311 176.358 364.493C175.177 365.672 173.264 365.672 172.082 364.493C170.902 363.311 170.902 361.399 172.082 360.218C173.262 359.038 175.177 359.038 176.358 360.218Z" fill="#4ECDC4"/>
<path d="M191.046 348.556C192.716 348.556 194.07 347.203 194.07 345.534C194.07 343.864 192.716 342.511 191.046 342.511C189.376 342.511 188.022 343.864 188.022 345.534C188.022 347.203 189.376 348.556 191.046 348.556Z" fill="#4ECDC4"/>
<path d="M210.012 326.576C211.194 327.756 211.194 329.67 210.012 330.851C208.832 332.031 206.917 332.031 205.735 330.851C204.553 329.672 204.553 327.758 205.735 326.576C206.917 325.395 208.83 325.395 210.012 326.576Z" fill="#4ECDC4"/>
<path d="M226.838 309.755C228.02 310.937 228.02 312.849 226.838 314.03C225.658 315.212 223.744 315.212 222.562 314.03C221.38 312.851 221.38 310.937 222.562 309.755C223.744 308.574 225.658 308.574 226.838 309.755Z" fill="#4ECDC4"/>
<path d="M241.528 298.094C243.198 298.094 244.552 296.741 244.552 295.071C244.552 293.402 243.198 292.048 241.528 292.048C239.858 292.048 238.504 293.402 238.504 295.071C238.504 296.741 239.858 298.094 241.528 298.094Z" fill="#4ECDC4"/>
<path d="M260.492 276.112C261.672 277.291 261.672 279.205 260.492 280.387C259.31 281.567 257.397 281.567 256.215 280.387C255.035 279.205 255.035 277.293 256.215 276.112C257.397 274.932 259.312 274.932 260.492 276.112Z" fill="#4ECDC4"/>
<path d="M277.321 259.291C278.501 260.47 278.501 262.385 277.321 263.566C276.139 264.746 274.226 264.746 273.044 263.566C271.864 262.387 271.864 260.472 273.044 259.291C274.224 258.111 276.139 258.111 277.321 259.291Z" fill="#4ECDC4"/>
<path d="M292.008 247.631C293.678 247.631 295.032 246.278 295.032 244.608C295.032 242.939 293.678 241.585 292.008 241.585C290.338 241.585 288.984 242.939 288.984 244.608C288.984 246.278 290.338 247.631 292.008 247.631Z" fill="#4ECDC4"/>
<path d="M310.974 225.649C312.156 226.828 312.156 228.743 310.974 229.924C309.794 231.104 307.879 231.104 306.697 229.924C305.516 228.743 305.516 226.83 306.697 225.649C307.877 224.469 309.792 224.469 310.974 225.649Z" fill="#4ECDC4"/>
<path d="M327.801 208.828C328.981 210.008 328.981 211.922 327.801 213.103C326.621 214.285 324.706 214.285 323.524 213.103C322.342 211.924 322.342 210.009 323.524 208.828C324.704 207.647 326.619 207.647 327.801 208.828Z" fill="#4ECDC4"/>
<path d="M342.49 197.167C344.16 197.167 345.514 195.813 345.514 194.144C345.514 192.474 344.16 191.121 342.49 191.121C340.82 191.121 339.466 192.474 339.466 194.144C339.466 195.813 340.82 197.167 342.49 197.167Z" fill="#4ECDC4"/>
<path d="M361.454 175.186C362.636 176.368 362.636 178.28 361.454 179.462C360.274 180.641 358.359 180.641 357.177 179.462C355.996 178.28 355.996 176.368 357.177 175.186C358.359 174.005 360.274 174.005 361.454 175.186Z" fill="#4ECDC4"/>
<path d="M299.539 113.29C300.719 114.47 300.719 116.384 299.539 117.566C298.357 118.745 296.444 118.745 295.262 117.566C294.082 116.386 294.082 114.472 295.262 113.29C296.444 112.111 298.357 112.111 299.539 113.29Z" fill="#4ECDC4"/>
<path d="M316.365 96.4696C317.545 97.6492 317.545 99.5634 316.365 100.745C315.185 101.926 313.27 101.926 312.089 100.745C310.909 99.5634 310.909 97.6511 312.089 96.4696C313.27 95.2901 315.185 95.2901 316.365 96.4696Z" fill="#4ECDC4"/>
<path d="M331.055 84.8102C332.725 84.8102 334.078 83.4568 334.078 81.7874C334.078 80.118 332.725 78.7646 331.055 78.7646C329.385 78.7646 328.031 80.118 328.031 81.7874C328.031 83.4568 329.385 84.8102 331.055 84.8102Z" fill="#4ECDC4"/>
<path d="M350.019 62.828C351.199 64.0095 351.199 65.9217 350.019 67.1032C348.837 68.2828 346.924 68.2828 345.742 67.1032C344.562 65.9217 344.562 64.0095 345.742 62.828C346.924 61.6465 348.839 61.6465 350.019 62.828Z" fill="#4ECDC4"/>
<path d="M366.845 46.0072C368.027 47.1868 368.027 49.1009 366.845 50.2824C365.665 51.462 363.75 51.462 362.569 50.2824C361.387 49.1029 361.387 47.1887 362.569 46.0072C363.75 44.8257 365.665 44.8257 366.845 46.0072Z" fill="#4ECDC4"/>
<path d="M381.535 34.3458C383.205 34.3458 384.558 32.9925 384.558 31.3231C384.558 29.6536 383.205 28.3003 381.535 28.3003C379.865 28.3003 378.511 29.6536 378.511 31.3231C378.511 32.9925 379.865 34.3458 381.535 34.3458Z" fill="#4ECDC4"/>
<path d="M398.362 17.525C400.032 17.525 401.386 16.1717 401.386 14.5023C401.386 12.8328 400.032 11.4795 398.362 11.4795C396.692 11.4795 395.338 12.8328 395.338 14.5023C395.338 16.1717 396.692 17.525 398.362 17.525Z" fill="#4ECDC4"/>
<path d="M417.328 -4.45568C418.51 -3.27611 418.51 -1.36195 417.328 -0.180459C416.148 0.999111 414.233 0.999111 413.051 -0.180459C411.869 -1.36195 411.869 -3.27419 413.051 -4.45568C414.231 -5.63717 416.146 -5.63717 417.328 -4.45568Z" fill="#4ECDC4"/>
<path d="M320.178 133.922C321.358 135.104 321.358 137.016 320.178 138.198C318.998 139.379 317.083 139.379 315.901 138.198C314.721 137.016 314.721 135.104 315.901 133.922C317.081 132.743 318.996 132.743 320.178 133.922Z" fill="#4ECDC4"/>
<path d="M337.004 117.101C338.184 118.281 338.184 120.195 337.004 121.377C335.823 122.556 333.91 122.556 332.728 121.377C331.548 120.195 331.548 118.283 332.728 117.101C333.908 115.92 335.823 115.92 337.004 117.101Z" fill="#4ECDC4"/>
<path d="M353.831 100.281C355.011 101.46 355.011 103.374 353.831 104.556C352.649 105.737 350.736 105.737 349.554 104.556C348.374 103.376 348.374 101.462 349.554 100.281C350.734 99.0992 352.649 99.0992 353.831 100.281Z" fill="#4ECDC4"/>
<path d="M370.658 83.4598C371.838 84.6413 371.838 86.5536 370.658 87.7351C369.478 88.9166 367.563 88.9166 366.381 87.7351C365.201 86.5555 365.201 84.6413 366.381 83.4598C367.563 82.2784 369.478 82.2784 370.658 83.4598Z" fill="#4ECDC4"/>
<path d="M385.347 71.7985C387.017 71.7985 388.371 70.4451 388.371 68.7757C388.371 67.1063 387.017 65.7529 385.347 65.7529C383.677 65.7529 382.323 67.1063 382.323 68.7757C382.323 70.4451 383.677 71.7985 385.347 71.7985Z" fill="#4ECDC4"/>
<path d="M404.311 49.8163C405.491 50.9959 405.491 52.9101 404.311 54.0915C403.131 55.273 401.216 55.273 400.034 54.0915C398.854 52.912 398.854 50.9978 400.034 49.8163C401.216 48.6367 403.131 48.6367 404.311 49.8163Z" fill="#4ECDC4"/>
<path d="M421.138 32.9955C422.32 34.1751 422.32 36.0893 421.138 37.2707C419.958 38.4522 418.043 38.4522 416.862 37.2707C415.68 36.0912 415.68 34.177 416.862 32.9955C418.043 31.8159 419.958 31.8159 421.138 32.9955Z" fill="#4ECDC4"/>
<path d="M435.828 21.3356C437.498 21.3356 438.851 19.9822 438.851 18.3128C438.851 16.6434 437.498 15.29 435.828 15.29C434.158 15.29 432.804 16.6434 432.804 18.3128C432.804 19.9822 434.158 21.3356 435.828 21.3356Z" fill="#4ECDC4"/>
<path d="M454.794 -0.646573C455.975 0.532997 455.975 2.44716 454.794 3.62865C453.614 4.81014 451.699 4.81014 450.517 3.62865C449.337 2.44908 449.337 0.534915 450.517 -0.646573C451.697 -1.82614 453.612 -1.82614 454.794 -0.646573Z" fill="#4ECDC4"/>
<path d="M340.815 154.554C341.997 155.734 341.997 157.648 340.815 158.829C339.635 160.011 337.72 160.011 336.538 158.829C335.358 157.648 335.358 155.736 336.538 154.554C337.72 153.373 339.635 153.373 340.815 154.554Z" fill="#4ECDC4"/>
<path d="M357.644 137.733C358.824 138.915 358.824 140.827 357.644 142.009C356.462 143.19 354.549 143.19 353.367 142.009C352.187 140.829 352.187 138.915 353.367 137.733C354.547 136.552 356.462 136.552 357.644 137.733Z" fill="#4ECDC4"/>
<path d="M374.47 120.912C375.65 122.094 375.65 124.006 374.47 125.188C373.29 126.369 371.375 126.369 370.194 125.188C369.014 124.006 369.014 122.094 370.194 120.912C371.374 119.731 373.288 119.731 374.47 120.912Z" fill="#4ECDC4"/>
<path d="M391.297 104.092C392.477 105.271 392.477 107.185 391.297 108.367C390.115 109.548 388.202 109.548 387.02 108.367C385.84 107.187 385.84 105.273 387.02 104.092C388.2 102.91 390.115 102.91 391.297 104.092Z" fill="#4ECDC4"/>
<path d="M408.124 87.269C409.304 88.4485 409.304 90.3627 408.124 91.5442C406.942 92.7257 405.029 92.7257 403.847 91.5442C402.667 90.3646 402.667 88.4504 403.847 87.269C405.027 86.0894 406.942 86.0894 408.124 87.269Z" fill="#4ECDC4"/>
<path d="M424.95 70.4482C426.132 71.6277 426.132 73.5419 424.95 74.7234C423.77 75.9049 421.855 75.9049 420.674 74.7234C419.494 73.5438 419.494 71.6296 420.674 70.4482C421.855 69.2686 423.77 69.2686 424.95 70.4482Z" fill="#4ECDC4"/>
<path d="M441.777 53.6274C442.957 54.8069 442.957 56.7211 441.777 57.9026C440.597 59.0821 438.683 59.0821 437.501 57.9026C436.319 56.723 436.319 54.8088 437.501 53.6274C438.683 52.4478 440.597 52.4478 441.777 53.6274Z" fill="#4ECDC4"/>
<path d="M458.604 36.806C459.786 37.9875 459.786 39.8998 458.604 41.0813C457.424 42.2608 455.509 42.2608 454.327 41.0813C453.147 39.9017 453.147 37.9875 454.327 36.806C455.509 35.6245 457.424 35.6245 458.604 36.806Z" fill="#4ECDC4"/>
<path d="M475.431 19.9852C476.613 21.1667 476.613 23.079 475.431 24.2605C474.251 25.4419 472.336 25.4419 471.154 24.2605C469.972 23.0809 469.972 21.1667 471.154 19.9852C472.336 18.8037 474.251 18.8037 475.431 19.9852Z" fill="#4ECDC4"/>
<path d="M492.259 3.16444C493.441 4.34401 493.441 6.25817 492.259 7.43966C491.079 8.61923 489.165 8.61923 487.983 7.43966C486.803 6.26009 486.803 4.34592 487.983 3.16444C489.163 1.98295 491.077 1.98295 492.259 3.16444Z" fill="#4ECDC4"/>
<path d="M361.454 175.186C362.636 176.368 362.636 178.28 361.454 179.462C360.274 180.641 358.359 180.641 357.177 179.462C355.996 178.28 355.996 176.368 357.177 175.186C358.359 174.005 360.274 174.005 361.454 175.186Z" fill="#4ECDC4"/>
<path d="M378.281 158.364C379.461 159.543 379.461 161.457 378.281 162.639C377.101 163.818 375.186 163.818 374.004 162.639C372.824 161.457 372.824 159.545 374.004 158.364C375.186 157.184 377.101 157.184 378.281 158.364Z" fill="#4ECDC4"/>
<path d="M392.97 146.704C394.64 146.704 395.994 145.351 395.994 143.681C395.994 142.012 394.64 140.659 392.97 140.659C391.3 140.659 389.946 142.012 389.946 143.681C389.946 145.351 391.3 146.704 392.97 146.704Z" fill="#4ECDC4"/>
<path d="M411.936 124.722C413.116 125.904 413.116 127.816 411.936 128.997C410.754 130.177 408.841 130.177 407.659 128.997C406.479 127.816 406.479 125.904 407.659 124.722C408.839 123.543 410.754 123.543 411.936 124.722Z" fill="#4ECDC4"/>
<path d="M428.763 107.901C429.943 109.081 429.943 110.995 428.763 112.177C427.583 113.356 425.668 113.356 424.486 112.177C423.306 110.997 423.306 109.083 424.486 107.901C425.666 106.722 427.581 106.722 428.763 107.901Z" fill="#4ECDC4"/>
<path d="M443.45 96.2399C445.12 96.2399 446.474 94.8865 446.474 93.2171C446.474 91.5477 445.12 90.1943 443.45 90.1943C441.78 90.1943 440.426 91.5477 440.426 93.2171C440.426 94.8865 441.78 96.2399 443.45 96.2399Z" fill="#4ECDC4"/>
<path d="M462.417 74.2597C463.597 75.4392 463.597 77.3534 462.417 78.5349C461.237 79.7144 459.322 79.7144 458.14 78.5349C456.96 77.3534 456.96 75.4411 458.14 74.2597C459.32 73.0782 461.235 73.0782 462.417 74.2597Z" fill="#4ECDC4"/>
<path d="M479.243 57.4384C480.423 58.6199 480.423 60.5321 479.243 61.7136C478.063 62.8951 476.148 62.8951 474.966 61.7136C473.784 60.534 473.784 58.6199 474.966 57.4384C476.148 56.2569 478.063 56.2569 479.243 57.4384Z" fill="#4ECDC4"/>
<path d="M496.07 40.6176C497.252 41.7971 497.252 43.7113 496.07 44.8928C494.888 46.0743 492.975 46.0743 491.793 44.8928C490.613 43.7132 490.613 41.799 491.793 40.6176C492.975 39.4361 494.89 39.4361 496.07 40.6176Z" fill="#4ECDC4"/>
<path d="M512.897 23.7948C514.077 24.9763 514.077 26.8886 512.897 28.0701C511.715 29.2515 509.802 29.2515 508.62 28.0701C507.44 26.8905 507.44 24.9763 508.62 23.7948C509.802 22.6153 511.717 22.6153 512.897 23.7948Z" fill="#4ECDC4"/>
<path d="M529.723 6.97426C530.905 8.15383 530.905 10.068 529.723 11.2495C528.543 12.4291 526.628 12.4291 525.446 11.2495C524.265 10.0699 524.265 8.15575 525.446 6.97426C526.628 5.79278 528.543 5.79469 529.723 6.97426Z" fill="#4ECDC4"/>
<path d="M1234.72 833.267C1235.9 834.448 1235.9 836.361 1234.72 837.542C1233.54 838.722 1231.63 838.722 1230.45 837.542C1229.27 836.361 1229.27 834.448 1230.45 833.267C1231.63 832.085 1233.54 832.085 1234.72 833.267Z" fill="#381653"/>
<path d="M1251.55 816.446C1252.73 817.628 1252.73 819.54 1251.55 820.721C1250.37 821.901 1248.45 821.901 1247.27 820.721C1246.09 819.54 1246.09 817.628 1247.27 816.446C1248.45 815.265 1250.37 815.265 1251.55 816.446Z" fill="#381653"/>
<path d="M1268.38 799.625C1269.56 800.805 1269.56 802.719 1268.38 803.901C1267.2 805.082 1265.28 805.082 1264.1 803.901C1262.92 802.719 1262.92 800.807 1264.1 799.625C1265.28 798.444 1267.2 798.444 1268.38 799.625Z" fill="#381653"/>
<path d="M1285.2 782.803C1286.38 783.982 1286.38 785.896 1285.2 787.078C1284.02 788.259 1282.11 788.259 1280.93 787.078C1279.74 785.898 1279.74 783.984 1280.93 782.803C1282.11 781.623 1284.02 781.623 1285.2 782.803Z" fill="#381653"/>
<path d="M1299.89 771.143C1301.56 771.143 1302.92 769.79 1302.92 768.12C1302.92 766.451 1301.56 765.098 1299.89 765.098C1298.22 765.098 1296.87 766.451 1296.87 768.12C1296.87 769.79 1298.22 771.143 1299.89 771.143Z" fill="#381653"/>
<path d="M1318.86 749.161C1320.04 750.341 1320.04 752.255 1318.86 753.436C1317.67 754.618 1315.76 754.618 1314.58 753.436C1313.4 752.255 1313.4 750.343 1314.58 749.161C1315.76 747.981 1317.68 747.981 1318.86 749.161Z" fill="#381653"/>
<path d="M1335.68 732.34C1336.86 733.52 1336.86 735.434 1335.68 736.615C1334.5 737.797 1332.59 737.797 1331.41 736.615C1330.23 735.434 1330.23 733.522 1331.41 732.34C1332.59 731.161 1334.5 731.161 1335.68 732.34Z" fill="#381653"/>
<path d="M1350.37 720.678C1352.04 720.678 1353.4 719.325 1353.4 717.656C1353.4 715.986 1352.04 714.633 1350.37 714.633C1348.7 714.633 1347.35 715.986 1347.35 717.656C1347.35 719.325 1348.7 720.678 1350.37 720.678Z" fill="#381653"/>
<path d="M1369.34 698.698C1370.52 699.88 1370.52 701.792 1369.34 702.973C1368.16 704.153 1366.24 704.153 1365.06 702.973C1363.88 701.794 1363.88 699.88 1365.06 698.698C1366.24 697.517 1368.16 697.517 1369.34 698.698Z" fill="#381653"/>
<path d="M1386.16 681.877C1387.34 683.059 1387.34 684.971 1386.16 686.152C1384.98 687.334 1383.07 687.334 1381.89 686.152C1380.71 684.971 1380.71 683.059 1381.89 681.877C1383.07 680.696 1384.98 680.696 1386.16 681.877Z" fill="#381653"/>
<path d="M1400.85 670.216C1402.52 670.216 1403.88 668.863 1403.88 667.193C1403.88 665.524 1402.52 664.17 1400.85 664.17C1399.18 664.17 1397.83 665.524 1397.83 667.193C1397.83 668.863 1399.18 670.216 1400.85 670.216Z" fill="#381653"/>
<path d="M1419.82 648.234C1421 649.415 1421 651.328 1419.82 652.509C1418.64 653.691 1416.72 653.691 1415.54 652.509C1414.36 651.329 1414.36 649.415 1415.54 648.234C1416.72 647.054 1418.64 647.054 1419.82 648.234Z" fill="#381653"/>
<path d="M1255.36 853.899C1256.54 855.078 1256.54 856.993 1255.36 858.174C1254.18 859.356 1252.26 859.356 1251.08 858.174C1249.9 856.993 1249.9 855.08 1251.08 853.899C1252.26 852.717 1254.18 852.717 1255.36 853.899Z" fill="#381653"/>
<path d="M1272.19 837.076C1273.37 838.258 1273.37 840.17 1272.19 841.351C1271.01 842.533 1269.09 842.533 1267.91 841.351C1266.73 840.172 1266.73 838.258 1267.91 837.076C1269.09 835.897 1271.01 835.897 1272.19 837.076Z" fill="#381653"/>
<path d="M1289.01 820.255C1290.19 821.437 1290.19 823.349 1289.01 824.531C1287.83 825.71 1285.92 825.71 1284.74 824.531C1283.56 823.349 1283.56 821.437 1284.74 820.255C1285.92 819.076 1287.83 819.076 1289.01 820.255Z" fill="#381653"/>
<path d="M1305.84 803.434C1307.02 804.614 1307.02 806.528 1305.84 807.71C1304.66 808.891 1302.75 808.891 1301.56 807.71C1300.38 806.528 1300.38 804.616 1301.56 803.434C1302.74 802.255 1304.66 802.255 1305.84 803.434Z" fill="#381653"/>
<path d="M1322.67 786.614C1323.85 787.793 1323.85 789.707 1322.67 790.889C1321.49 792.07 1319.57 792.07 1318.39 790.889C1317.21 789.709 1317.21 787.795 1318.39 786.614C1319.57 785.434 1321.49 785.434 1322.67 786.614Z" fill="#381653"/>
<path d="M1339.49 769.793C1340.68 770.974 1340.68 772.887 1339.49 774.068C1338.31 775.248 1336.4 775.248 1335.22 774.068C1334.04 772.887 1334.04 770.974 1335.22 769.793C1336.4 768.611 1338.31 768.611 1339.49 769.793Z" fill="#381653"/>
<path d="M1356.32 752.972C1357.5 754.152 1357.5 756.066 1356.32 757.247C1355.14 758.427 1353.23 758.427 1352.04 757.247C1350.86 756.068 1350.86 754.154 1352.04 752.972C1353.23 751.791 1355.14 751.791 1356.32 752.972Z" fill="#381653"/>
<path d="M1373.15 736.151C1374.33 737.331 1374.33 739.245 1373.15 740.426C1371.97 741.608 1370.05 741.608 1368.87 740.426C1367.69 739.245 1367.69 737.333 1368.87 736.151C1370.05 734.97 1371.97 734.97 1373.15 736.151Z" fill="#381653"/>
<path d="M1389.97 719.33C1391.16 720.511 1391.16 722.424 1389.97 723.605C1388.79 724.787 1386.88 724.787 1385.7 723.605C1384.52 722.426 1384.52 720.511 1385.7 719.33C1386.88 718.148 1388.79 718.148 1389.97 719.33Z" fill="#381653"/>
<path d="M1406.8 702.507C1407.98 703.689 1407.98 705.601 1406.8 706.782C1405.62 707.962 1403.71 707.962 1402.53 706.782C1401.34 705.603 1401.34 703.689 1402.53 702.507C1403.71 701.328 1405.62 701.328 1406.8 702.507Z" fill="#381653"/>
<path d="M1423.63 685.686C1424.81 686.868 1424.81 688.78 1423.63 689.962C1422.45 691.143 1420.54 691.143 1419.35 689.962C1418.17 688.78 1418.17 686.868 1419.35 685.686C1420.53 684.507 1422.45 684.507 1423.63 685.686Z" fill="#381653"/>
<path d="M1440.46 668.866C1441.64 670.045 1441.64 671.959 1440.46 673.141C1439.27 674.322 1437.36 674.322 1436.18 673.141C1435 671.961 1435 670.047 1436.18 668.866C1437.36 667.686 1439.27 667.686 1440.46 668.866Z" fill="#381653"/>
<path d="M1276 874.529C1277.18 875.71 1277.18 877.622 1276 878.804C1274.82 879.983 1272.9 879.983 1271.72 878.804C1270.54 877.622 1270.54 875.71 1271.72 874.529C1272.9 873.349 1274.82 873.349 1276 874.529Z" fill="#381653"/>
<path d="M1292.83 857.708C1294 858.887 1294 860.802 1292.83 861.983C1291.65 863.165 1289.73 863.165 1288.55 861.983C1287.37 860.802 1287.37 858.889 1288.55 857.708C1289.73 856.528 1291.65 856.528 1292.83 857.708Z" fill="#381653"/>
<path d="M1309.65 840.887C1310.83 842.067 1310.83 843.981 1309.65 845.162C1308.47 846.344 1306.56 846.344 1305.37 845.162C1304.19 843.983 1304.19 842.069 1305.37 840.887C1306.56 839.706 1308.47 839.706 1309.65 840.887Z" fill="#381653"/>
<path d="M1326.48 824.066C1327.66 825.248 1327.66 827.16 1326.48 828.342C1325.3 829.521 1323.39 829.521 1322.2 828.342C1321.02 827.16 1321.02 825.248 1322.2 824.066C1323.38 822.885 1325.3 822.885 1326.48 824.066Z" fill="#381653"/>
<path d="M1343.31 807.245C1344.49 808.425 1344.49 810.339 1343.31 811.521C1342.13 812.702 1340.21 812.702 1339.03 811.521C1337.85 810.339 1337.85 808.427 1339.03 807.245C1340.21 806.064 1342.13 806.064 1343.31 807.245Z" fill="#381653"/>
<path d="M1360.13 790.425C1361.31 791.604 1361.31 793.518 1360.13 794.7C1358.95 795.881 1357.04 795.881 1355.86 794.7C1354.67 793.518 1354.67 791.606 1355.86 790.425C1357.04 789.243 1358.95 789.243 1360.13 790.425Z" fill="#381653"/>
<path d="M1376.96 773.603C1378.14 774.785 1378.14 776.697 1376.96 777.879C1375.78 779.058 1373.87 779.058 1372.68 777.879C1371.5 776.697 1371.5 774.785 1372.68 773.603C1373.87 772.422 1375.78 772.422 1376.96 773.603Z" fill="#381653"/>
<path d="M1393.79 756.781C1394.97 757.962 1394.97 759.874 1393.79 761.056C1392.61 762.235 1390.69 762.235 1389.51 761.056C1388.33 759.876 1388.33 757.962 1389.51 756.781C1390.69 755.601 1392.61 755.601 1393.79 756.781Z" fill="#381653"/>
<path d="M1408.48 745.121C1410.15 745.121 1411.5 743.768 1411.5 742.098C1411.5 740.429 1410.15 739.076 1408.48 739.076C1406.81 739.076 1405.45 740.429 1405.45 742.098C1405.45 743.768 1406.81 745.121 1408.48 745.121Z" fill="#381653"/>
<path d="M1427.44 723.139C1428.62 724.319 1428.62 726.233 1427.44 727.414C1426.26 728.596 1424.35 728.596 1423.16 727.414C1421.98 726.235 1421.98 724.321 1423.16 723.139C1424.35 721.96 1426.26 721.96 1427.44 723.139Z" fill="#381653"/>
<path d="M1444.27 706.318C1445.45 707.5 1445.45 709.412 1444.27 710.593C1443.09 711.775 1441.17 711.775 1439.99 710.593C1438.81 709.414 1438.81 707.5 1439.99 706.318C1441.17 705.137 1443.09 705.137 1444.27 706.318Z" fill="#381653"/>
<path d="M1296.64 895.161C1297.82 896.342 1297.82 898.254 1296.64 899.436C1295.46 900.617 1293.54 900.617 1292.36 899.436C1291.18 898.256 1291.18 896.342 1292.36 895.161C1293.54 893.979 1295.46 893.979 1296.64 895.161Z" fill="#381653"/>
<path d="M1311.33 883.499C1313 883.499 1314.35 882.146 1314.35 880.476C1314.35 878.807 1313 877.454 1311.33 877.454C1309.66 877.454 1308.3 878.807 1308.3 880.476C1308.3 882.146 1309.66 883.499 1311.33 883.499Z" fill="#381653"/>
<path d="M1330.29 861.519C1331.47 862.698 1331.47 864.613 1330.29 865.794C1329.11 866.976 1327.2 866.976 1326.01 865.794C1324.83 864.613 1324.83 862.7 1326.01 861.519C1327.2 860.337 1329.11 860.337 1330.29 861.519Z" fill="#381653"/>
<path d="M1347.12 844.698C1348.3 845.878 1348.3 847.792 1347.12 848.973C1345.94 850.155 1344.02 850.155 1342.84 848.973C1341.66 847.794 1341.66 845.88 1342.84 844.698C1344.02 843.517 1345.94 843.517 1347.12 844.698Z" fill="#381653"/>
<path d="M1363.94 827.875C1365.13 829.057 1365.13 830.969 1363.94 832.15C1362.76 833.33 1360.85 833.33 1359.67 832.15C1358.49 830.969 1358.49 829.057 1359.67 827.875C1360.85 826.694 1362.76 826.696 1363.94 827.875Z" fill="#381653"/>
<path d="M1380.77 811.055C1381.95 812.236 1381.95 814.148 1380.77 815.33C1379.59 816.509 1377.68 816.509 1376.5 815.33C1375.32 814.15 1375.32 812.236 1376.5 811.055C1377.68 809.875 1379.59 809.875 1380.77 811.055Z" fill="#381653"/>
<path d="M1397.6 794.234C1398.78 795.413 1398.78 797.328 1397.6 798.509C1396.42 799.691 1394.5 799.691 1393.32 798.509C1392.14 797.328 1392.14 795.415 1393.32 794.234C1394.5 793.054 1396.42 793.054 1397.6 794.234Z" fill="#381653"/>
<path d="M1414.43 777.413C1415.61 778.594 1415.61 780.507 1414.43 781.688C1413.24 782.87 1411.33 782.87 1410.15 781.688C1408.97 780.509 1408.97 778.594 1410.15 777.413C1411.33 776.233 1413.24 776.233 1414.43 777.413Z" fill="#381653"/>
<path d="M1431.25 760.592C1432.43 761.773 1432.43 763.685 1431.25 764.867C1430.07 766.047 1428.16 766.047 1426.98 764.867C1425.79 763.687 1425.79 761.773 1426.98 760.592C1428.16 759.412 1430.07 759.412 1431.25 760.592Z" fill="#381653"/>
<path d="M1419.82 648.234C1421 649.415 1421 651.328 1419.82 652.509C1418.64 653.691 1416.72 653.691 1415.54 652.509C1414.36 651.329 1414.36 649.415 1415.54 648.234C1416.72 647.054 1418.64 647.054 1419.82 648.234Z" fill="#381653"/>
<path d="M1436.64 631.413C1437.82 632.594 1437.82 634.507 1436.64 635.688C1435.46 636.87 1433.55 636.87 1432.37 635.688C1431.19 634.507 1431.19 632.594 1432.37 631.413C1433.55 630.233 1435.46 630.233 1436.64 631.413Z" fill="#381653"/>
<path d="M1440.46 668.866C1441.64 670.045 1441.64 671.959 1440.46 673.141C1439.27 674.322 1437.36 674.322 1436.18 673.141C1435 671.961 1435 670.047 1436.18 668.866C1437.36 667.686 1439.27 667.686 1440.46 668.866Z" fill="#381653"/>
</g>
<mask id="mask2_91_2106" style="mask-type:luminance" maskUnits="userSpaceOnUse" x="0" y="0" width="1439" height="959">
<path d="M1439 0H0V959H1439V0Z" fill="white"/>
</mask>
<g mask="url(#mask2_91_2106)">
<path d="M1030.74 13.2478L956.77 87.1944C951.438 92.5245 951.438 101.165 956.77 106.493C962.102 111.823 970.746 111.823 976.076 106.493L1050.05 32.5467C1055.52 27.0766 1055.35 18.1579 1049.68 12.8949C1044.3 7.90236 1035.93 8.05771 1030.74 13.2478Z" fill="#F08CB6"/>
<path d="M1334.7 134.316L1294.64 174.362C1288.54 180.465 1288.54 190.358 1294.64 196.459C1300.75 202.562 1310.65 202.562 1316.75 196.459L1356.81 156.413C1363.07 150.149 1362.88 139.938 1356.39 133.911C1350.23 128.196 1340.65 128.374 1334.7 134.316Z" fill="#F9CF87"/>
<path d="M-191.331 1011.05C-185.128 1017.25 -175.068 1017.25 -168.865 1011.05L-39.3476 881.575C-36.955 879.183 -33.0774 879.183 -30.6868 881.575C-28.2942 883.966 -28.2942 887.843 -30.6868 890.232L-295.225 1154.68C-301.006 1160.46 -301.006 1169.83 -295.225 1175.61C-289.444 1181.38 -280.073 1181.38 -274.292 1175.61L-79.4075 980.789C-73.7263 975.11 -64.5167 975.11 -58.8355 980.789C-53.1544 986.468 -43.9448 986.468 -38.2636 980.789L116.02 826.559C120.903 821.677 128.822 821.677 133.705 826.559C138.588 831.44 138.588 839.356 133.705 844.237L96.352 881.576C91.1697 886.757 91.1697 895.156 96.352 900.336C101.534 905.517 109.936 905.517 115.118 900.336L283.658 731.855C290.235 725.281 290.235 714.62 283.658 708.044C277.081 701.469 266.417 701.469 259.838 708.044L191.988 775.87C187.005 780.851 178.926 780.851 173.943 775.87C168.96 770.889 168.96 762.812 173.943 757.831L210.754 721.032C218.926 712.863 218.926 699.618 210.754 691.449C202.583 683.28 189.332 683.28 181.161 691.449L149.042 723.556C146.253 726.345 141.728 726.345 138.937 723.556C136.147 720.768 136.147 716.245 138.937 713.454L254.126 598.305C262.662 589.772 262.662 575.937 254.126 567.404C245.542 558.823 231.605 558.879 223.089 567.531L-191.423 988.681C-197.54 994.898 -197.499 1004.88 -191.331 1011.05Z" fill="#4ECDC4"/>
<path d="M700.571 840.826L595.458 945.902C590.126 951.232 590.126 959.873 595.458 965.201C600.79 970.531 609.434 970.531 614.764 965.201L719.876 860.125C725.348 854.655 725.183 845.737 719.51 840.474C714.13 835.481 705.761 835.636 700.571 840.826Z" fill="#4ECDC4"/>
<path d="M179.359 141.691L-88.0855 409.043C-93.4175 414.373 -93.4175 423.013 -88.0855 428.342C-82.7535 433.672 -74.1099 433.672 -68.7799 428.342L198.665 160.99C204.137 155.519 203.97 146.601 198.299 141.338C192.919 136.345 184.551 136.501 179.359 141.691Z" fill="#4ECDC4"/>
<path d="M1465.9 581.595L1068.16 979.189C1062.83 984.519 1062.83 993.16 1068.16 998.488C1073.5 1003.82 1082.14 1003.82 1087.47 998.488L1485.2 600.894C1490.67 595.424 1490.51 586.506 1484.84 581.243C1479.46 576.25 1471.09 576.405 1465.9 581.595Z" fill="#4ECDC4"/>
<path d="M450.683 343.13L367.868 425.917C362.062 431.721 362.062 441.131 367.868 446.935C373.674 452.738 383.087 452.738 388.893 446.935L471.708 364.148C477.668 358.191 477.487 348.478 471.309 342.747C465.45 337.309 456.338 337.478 450.683 343.13Z" fill="#4ECDC4"/>
<path d="M260.676 56.8765L224.126 93.4144C218.556 98.9823 218.556 108.008 224.126 113.576C229.696 119.144 238.725 119.144 244.295 113.576L280.845 77.0385C286.561 71.3248 286.388 62.0071 280.463 56.5082C274.844 51.2913 266.1 51.4543 260.676 56.8765Z" fill="#4ECDC4"/>
<path d="M510.325 323.715C503.794 329.354 493.927 328.632 488.286 322.102C482.645 315.573 483.366 305.708 489.899 300.07C496.43 294.431 506.298 295.152 511.939 301.683C517.58 308.211 516.857 318.076 510.325 323.715Z" fill="#4ECDC4"/>
<path d="M193.325 953.452C186.865 946.994 186.865 936.525 193.325 930.068L331.979 791.461C338.779 784.664 349.802 784.664 356.6 791.461C363.399 798.257 363.399 809.278 356.6 816.073L265.313 907.33C258.066 914.574 258.066 926.318 265.313 933.56C272.56 940.804 272.56 952.548 265.313 959.791L152.049 1073.02C144.27 1080.79 131.661 1080.79 123.883 1073.02C116.049 1065.18 116.114 1052.47 124.026 1044.72L193.206 976.951C199.777 970.516 199.831 959.954 193.325 953.452Z" fill="#F9CF87"/>
<path d="M1151.68 483.589C1156.9 488.806 1165.36 488.806 1170.58 483.589L1221.67 432.523C1224.4 429.784 1228.85 429.784 1231.59 432.523C1234.32 435.262 1234.32 439.7 1231.59 442.437L1041.41 632.551C1035.33 638.629 1035.33 648.486 1041.41 654.564C1047.49 660.642 1057.35 660.642 1063.43 654.564L1346.44 371.649C1352.12 365.97 1352.12 356.764 1346.44 351.084C1340.76 345.405 1331.55 345.405 1325.87 351.084L1284.98 391.953C1282.03 394.909 1277.24 394.909 1274.28 391.953C1271.32 388.997 1271.32 384.206 1274.28 381.251L1400.13 255.445C1405.22 250.351 1405.22 242.09 1400.13 236.996C1395.05 231.919 1386.82 231.898 1381.72 236.952L1151.73 464.647C1146.46 469.86 1146.44 478.355 1151.68 483.589Z" fill="#F9CF87"/>
<path d="M561.48 45.6258L456.368 150.701C451.036 156.032 451.036 164.672 456.368 170C461.698 175.331 470.342 175.331 475.674 170L580.786 64.9247C586.258 59.4545 586.091 50.5358 580.42 45.2728C575.04 40.2803 566.672 40.4356 561.48 45.6258Z" fill="#F9CF87"/>
<path d="M1440.22 764.762L1357.4 847.551C1351.6 853.355 1351.6 862.765 1357.4 868.569C1363.21 874.372 1372.62 874.372 1378.43 868.569L1461.24 785.782C1467.2 779.825 1467.02 770.112 1460.84 764.381C1454.99 758.941 1445.87 759.11 1440.22 764.762Z" fill="#F9CF87"/>
<path d="M400.121 759.89C406.223 753.79 406.223 743.9 400.121 737.8C394.019 731.7 384.126 731.7 378.023 737.8C371.921 743.9 371.921 753.79 378.024 759.89C384.126 765.99 394.019 765.99 400.121 759.89Z" fill="#F9CF87"/>
<path d="M332.513 3.64636C339.698 10.8312 351.35 10.8312 358.538 3.64636L474.367 -112.141C479.749 -117.521 488.473 -117.521 493.855 -112.141C499.237 -106.761 499.237 -98.0403 493.855 -92.6603L204.052 197.04C197.675 203.416 197.675 213.754 204.052 220.129C210.43 226.505 220.772 226.505 227.149 220.129L317.014 130.296C322.795 124.517 332.165 124.517 337.946 130.296C343.727 136.075 353.098 136.075 358.879 130.296L505.914 -16.6883C511.812 -22.5842 521.373 -22.5842 527.269 -16.6883C533.167 -10.7943 533.167 -1.23499 527.269 4.65906L352.954 178.913C346.295 185.571 346.295 196.365 352.954 203.022C359.614 209.68 370.412 209.68 377.072 203.022L675.568 -95.3665C680.052 -99.8489 687.324 -99.8489 691.81 -95.3665C696.294 -90.8842 696.294 -83.615 691.81 -79.1307L647.778 -35.1183C641.7 -29.0421 641.7 -19.1874 647.778 -13.1112C653.859 -7.03497 663.715 -7.03497 669.793 -13.1112L765.611 -108.896C770.794 -114.077 779.196 -114.077 784.378 -108.896C789.56 -103.716 789.56 -95.3167 784.378 -90.1362L614.396 79.789C607.818 86.3639 607.818 97.0242 614.396 103.601C620.973 110.176 631.637 110.176 638.216 103.601L972.049 -230.116C979.623 -237.688 979.623 -249.963 972.049 -257.533C964.474 -265.106 952.194 -265.106 944.619 -257.533L869.281 -182.221C861.856 -174.799 849.818 -174.799 842.395 -182.221C834.969 -189.644 834.969 -201.677 842.395 -209.098L880.198 -246.889C888.569 -255.257 888.569 -268.825 880.198 -277.193C871.827 -285.561 858.254 -285.561 849.883 -277.193L823.899 -251.217C817.022 -244.343 805.873 -244.343 798.996 -251.217C792.12 -258.092 792.12 -269.237 798.996 -276.111L1038.54 -515.575C1047.96 -524.991 1047.96 -540.254 1038.54 -549.668C1029.13 -559.083 1013.86 -559.083 1004.44 -549.668L721.311 -266.644C716.378 -261.713 708.38 -261.713 703.447 -266.644C698.514 -271.575 698.514 -279.571 703.447 -284.502L790.063 -371.089C797.985 -379.008 797.985 -391.849 790.063 -399.77C782.141 -407.69 769.295 -407.69 761.371 -399.77L655.246 -293.682C647.932 -286.371 636.075 -286.371 628.761 -293.682C621.431 -301.009 609.541 -300.992 602.235 -293.642L332.474 -22.3291C325.325 -15.1404 325.343 -3.52307 332.513 3.64636Z" fill="#F08CB6"/>
<path d="M-599.242 957.846C-592.054 965.03 -580.404 965.03 -573.217 957.846L-457.389 842.056C-452.007 836.676 -443.283 836.676 -437.901 842.056C-432.519 847.436 -432.519 856.159 -437.901 861.537L-727.702 1151.24C-734.08 1157.61 -734.08 1167.95 -727.702 1174.33C-721.324 1180.7 -710.983 1180.7 -704.605 1174.33L-614.741 1084.49C-608.96 1078.71 -599.589 1078.71 -593.808 1084.49C-588.027 1090.27 -578.656 1090.27 -572.875 1084.49L-425.84 937.509C-419.942 931.613 -410.382 931.613 -404.485 937.509C-398.587 943.403 -398.587 952.962 -404.485 958.856L-578.8 1133.11C-585.46 1139.77 -585.46 1150.56 -578.8 1157.22C-572.14 1163.88 -561.342 1163.88 -554.683 1157.22L-256.188 858.829C-251.704 854.346 -244.432 854.346 -239.946 858.829C-235.462 863.311 -235.462 870.58 -239.946 875.065L-283.976 919.079C-290.056 925.155 -290.056 935.01 -283.976 941.086C-277.898 947.162 -268.04 947.162 -261.961 941.086L-166.143 845.301C-160.961 840.121 -152.559 840.121 -147.376 845.301C-142.194 850.482 -142.194 858.881 -147.376 864.061L-317.361 1033.99C-323.938 1040.56 -323.938 1051.22 -317.361 1057.8C-310.784 1064.37 -300.12 1064.37 -293.54 1057.8L40.2922 724.083C47.8671 716.511 47.8671 704.236 40.2922 696.664C32.7173 689.092 20.4377 689.092 12.8629 696.664L-62.4755 771.976C-69.9007 779.399 -81.9384 779.399 -89.3618 771.976C-96.787 764.553 -96.787 752.52 -89.3618 745.099L-51.5582 707.309C-43.1871 698.94 -43.1871 685.372 -51.5582 677.004C-59.9294 668.636 -73.5021 668.636 -81.8732 677.004L-107.858 702.98C-114.734 709.854 -125.884 709.854 -132.76 702.98C-139.637 696.106 -139.637 684.96 -132.76 678.086L106.787 438.622C116.206 429.206 116.206 413.943 106.787 404.529C97.3705 395.114 82.0999 395.114 72.6831 404.529L-210.443 687.557C-215.376 692.488 -223.375 692.488 -228.308 687.557C-233.241 682.626 -233.241 674.63 -228.308 669.699L-141.691 583.112C-133.769 575.193 -133.769 562.352 -141.691 554.431C-149.614 546.511 -162.459 546.511 -170.383 554.431L-276.509 660.519C-283.822 667.83 -295.68 667.83 -302.994 660.519C-310.323 653.192 -322.213 653.21 -329.519 660.559L-599.282 931.872C-606.431 939.061 -606.414 950.678 -599.242 957.846Z" fill="#F08CB6"/>
<path d="M1221.73 586.16L1059.66 748.178C1054.33 753.508 1054.33 762.148 1059.66 767.477C1064.99 772.807 1073.64 772.807 1078.97 767.477L1241.04 605.459C1246.51 599.989 1246.35 591.071 1240.68 585.808C1235.29 580.815 1226.92 580.97 1221.73 586.16Z" fill="#F08CB6"/>
<path d="M1034.04 806.494C1042.34 806.494 1049.08 799.762 1049.08 791.457C1049.08 783.152 1042.34 776.42 1034.04 776.42C1025.73 776.42 1018.99 783.152 1018.99 791.457C1018.99 799.762 1025.73 806.494 1034.04 806.494Z" fill="#F08CB6"/>
<path d="M1076.15 178.211C1065.56 167.633 1048.41 167.633 1037.82 178.211C1030.63 185.4 1018.97 185.4 1011.78 178.211L1007.66 174.089C1000.47 166.901 1000.47 155.245 1007.66 148.056L1233.48 -77.6847C1241.09 -85.2972 1253.44 -85.2972 1261.06 -77.6847C1268.67 -70.0721 1268.67 -57.7298 1261.06 -50.1173L1201.43 9.48457C1196.93 13.9842 1196.93 21.2822 1201.43 25.7818C1205.93 30.2834 1213.23 30.2834 1217.74 25.7818L1441.64 -198.047C1448.22 -204.622 1458.88 -204.622 1465.46 -198.047C1472.04 -191.472 1472.04 -180.812 1465.46 -174.237L1235.21 55.9385C1226.24 64.9052 1226.24 79.4417 1235.21 88.4084C1244.18 97.375 1244.18 111.911 1235.21 120.878L1039.81 316.207C1031.12 324.892 1017.04 324.892 1008.35 316.207C999.685 307.544 999.662 293.506 1008.3 284.813L1076.21 216.454C1086.73 205.865 1086.7 188.764 1076.15 178.211Z" fill="#381653"/>
<path d="M1512.68 329.845L1350.61 491.862C1345.28 497.192 1345.28 505.832 1350.61 511.161C1355.94 516.491 1364.59 516.491 1369.92 511.161L1531.99 349.143C1537.46 343.673 1537.3 334.755 1531.63 329.492C1526.24 324.499 1517.87 324.654 1512.68 329.845Z" fill="#381653"/>
<path d="M1187.33 762.797L1137.69 812.423C1130.12 819.986 1130.12 832.245 1137.69 839.806C1145.25 847.369 1157.52 847.369 1165.08 839.806L1214.72 790.18C1222.49 782.418 1222.25 769.763 1214.2 762.296C1206.57 755.211 1194.7 755.431 1187.33 762.797Z" fill="#381653"/>
<path d="M973.984 749.79L891.167 832.577C885.361 838.381 885.361 847.79 891.167 853.594C896.973 859.398 906.386 859.398 912.192 853.594L995.009 770.806C1000.97 764.848 1000.79 755.136 994.61 749.405C988.751 743.969 979.637 744.14 973.984 749.79Z" fill="#381653"/>
</g>
<mask id="mask3_91_2106" style="mask-type:luminance" maskUnits="userSpaceOnUse" x="0" y="0" width="1439" height="959">
<path d="M1439 0H0V959H1439V0Z" fill="white"/>
</mask>
<g mask="url(#mask3_91_2106)">
<path d="M1421.15 400.346L1423.83 397.417L1298.74 397.465L1296.06 400.394L1421.15 400.346Z" fill="#4ECDC4"/>
<path d="M1404.38 418.678L1407.06 415.749L1281.97 415.797L1279.3 418.726L1404.38 418.678Z" fill="#4ECDC4"/>
<path d="M1387.62 437.01L1390.3 434.082L1265.21 434.129L1262.53 437.058L1387.62 437.01Z" fill="#4ECDC4"/>
<path d="M1370.85 455.344L1373.53 452.416L1248.44 452.463L1245.77 455.39L1370.85 455.344Z" fill="#4ECDC4"/>
<path d="M1354.09 473.677L1356.77 470.748L1231.68 470.796L1229 473.725L1354.09 473.677Z" fill="#4ECDC4"/>
<path d="M1337.32 492.009L1340 489.08L1214.91 489.128L1212.23 492.057L1337.32 492.009Z" fill="#4ECDC4"/>
<path d="M1320.56 510.341L1323.24 507.413L1198.15 507.461L1195.47 510.389L1320.56 510.341Z" fill="#4ECDC4"/>
<path d="M1303.79 528.673L1306.47 525.745L1181.38 525.793L1178.7 528.721L1303.79 528.673Z" fill="#4ECDC4"/>
<path d="M1287.03 547.006L1289.7 544.077L1164.62 544.125L1161.94 547.054L1287.03 547.006Z" fill="#4ECDC4"/>
<path d="M1555.27 253.686L1557.95 250.757L1432.86 250.805L1430.19 253.734L1555.27 253.686Z" fill="#4ECDC4"/>
<path d="M1538.51 272.018L1541.19 269.089L1416.1 269.137L1413.42 272.066L1538.51 272.018Z" fill="#4ECDC4"/>
<path d="M1521.74 290.351L1524.42 287.422L1399.33 287.47L1396.66 290.399L1521.74 290.351Z" fill="#4ECDC4"/>
<path d="M1504.98 308.683L1507.65 305.754L1382.57 305.802L1379.89 308.731L1504.98 308.683Z" fill="#4ECDC4"/>
<path d="M1488.21 327.015L1490.89 324.086L1365.8 324.134L1363.12 327.063L1488.21 327.015Z" fill="#4ECDC4"/>
<path d="M1471.44 345.349L1474.12 342.42L1349.04 342.468L1346.36 345.395L1471.44 345.349Z" fill="#4ECDC4"/>
<path d="M1454.68 363.682L1457.36 360.753L1332.27 360.801L1329.59 363.73L1454.68 363.682Z" fill="#4ECDC4"/>
<path d="M1437.91 382.014L1440.59 379.085L1315.51 379.133L1312.83 382.062L1437.91 382.014Z" fill="#4ECDC4"/>
<path d="M53.7343 597.098L55.7528 594.893L-38.4576 594.927L-40.4741 597.135L53.7343 597.098Z" fill="#F9CF87"/>
<path d="M41.1074 610.906L43.1258 608.7L-51.0846 608.735L-53.1011 610.94L41.1074 610.906Z" fill="#F9CF87"/>
<path d="M28.4804 624.712L30.4989 622.506L-63.7115 622.542L-65.728 624.748L28.4804 624.712Z" fill="#F9CF87"/>
<path d="M15.8539 638.52L17.8704 636.314L-76.338 636.35L-78.3564 638.556L15.8539 638.52Z" fill="#F9CF87"/>
<path d="M3.22701 652.327L5.24353 650.122L-88.9649 650.158L-90.9814 652.362L3.22701 652.327Z" fill="#F9CF87"/>
<path d="M154.75 486.641L156.766 484.435L62.5561 484.471L60.5396 486.677L154.75 486.641Z" fill="#F9CF87"/>
<path d="M142.123 500.448L144.139 498.243L49.931 498.277L47.9126 500.483L142.123 500.448Z" fill="#F9CF87"/>
<path d="M129.496 514.256L131.513 512.048L37.3026 512.085L35.2861 514.29L129.496 514.256Z" fill="#F9CF87"/>
<path d="M116.87 528.062L118.886 525.856L24.6757 525.893L22.6592 528.099L116.87 528.062Z" fill="#F9CF87"/>
<path d="M104.243 541.87L106.26 539.664L12.0492 539.7L10.0327 541.906L104.243 541.87Z" fill="#F9CF87"/>
<path d="M91.6161 555.677L93.6327 553.472L-0.577719 553.506L-2.59424 555.712L91.6161 555.677Z" fill="#F9CF87"/>
<path d="M78.9877 569.483L81.0062 567.277L-13.2042 567.314L-15.2207 569.519L78.9877 569.483Z" fill="#F9CF87"/>
<path d="M66.3608 583.291L68.3792 581.085L-25.8311 581.121L-27.8477 583.327L66.3608 583.291Z" fill="#F9CF87"/>
<path d="M1211.52 202.761L1203.48 210.796L1187.18 211.011L1195.22 202.974L1211.52 202.761Z" fill="#F08CB6"/>
<path d="M1229.9 184.383L1221.86 192.419L1205.57 192.634L1213.61 184.598L1229.9 184.383Z" fill="#F08CB6"/>
<path d="M1248.28 166.007L1240.24 174.043L1223.95 174.256L1231.99 166.22L1248.28 166.007Z" fill="#F08CB6"/>
<path d="M1266.67 147.63L1258.63 155.667L1242.33 155.88L1250.37 147.843L1266.67 147.63Z" fill="#F08CB6"/>
<path d="M1285.05 129.254L1277.01 137.288L1260.72 137.503L1268.75 129.467L1285.05 129.254Z" fill="#F08CB6"/>
<path d="M1303.43 110.875L1295.39 118.912L1279.1 119.127L1287.14 111.09L1303.43 110.875Z" fill="#F08CB6"/>
<path d="M1321.81 92.4995L1313.77 100.536L1297.48 100.749L1305.52 92.7143L1321.81 92.4995Z" fill="#F08CB6"/>
<path d="M1340.2 74.123L1332.16 82.1595L1315.87 82.3724L1323.9 74.3359L1340.2 74.123Z" fill="#F08CB6"/>
<path d="M1358.58 55.7466L1350.54 63.7811L1334.25 63.9959L1342.29 55.9595L1358.58 55.7466Z" fill="#F08CB6"/>
<path d="M1376.96 37.3682L1368.92 45.4046L1352.63 45.6194L1360.67 37.583L1376.96 37.3682Z" fill="#F08CB6"/>
<path d="M1395.35 18.9922L1387.31 27.0286L1371.02 27.2415L1379.06 19.207L1395.35 18.9922Z" fill="#F08CB6"/>
<path d="M1413.73 0.615723L1405.69 8.65214L1389.4 8.86504L1397.44 0.828621L1413.73 0.615723Z" fill="#F08CB6"/>
<path d="M217.427 683.734L209.388 691.77L193.095 691.983L201.134 683.947L217.427 683.734Z" fill="#F9CF87"/>
<path d="M235.81 665.355L227.771 673.392L211.479 673.607L219.517 665.57L235.81 665.355Z" fill="#F9CF87"/>
<path d="M254.193 646.979L246.154 655.016L229.862 655.231L237.902 647.194L254.193 646.979Z" fill="#F9CF87"/>
<path d="M272.576 628.603L264.537 636.639L248.245 636.852L256.284 628.816L272.576 628.603Z" fill="#F9CF87"/>
<path d="M290.96 610.227L282.921 618.263L266.627 618.476L274.667 610.44L290.96 610.227Z" fill="#F9CF87"/>
<path d="M309.343 591.85L301.304 599.887L285.012 600.099L293.049 592.063L309.343 591.85Z" fill="#F9CF87"/>
<path d="M327.726 573.472L319.686 581.509L303.395 581.723L311.434 573.687L327.726 573.472Z" fill="#F9CF87"/>
<path d="M346.108 555.096L338.069 563.132L321.778 563.347L329.817 555.311L346.108 555.096Z" fill="#F9CF87"/>
<path d="M364.493 536.719L356.454 544.756L340.161 544.969L348.2 536.932L364.493 536.719Z" fill="#F9CF87"/>
<path d="M382.876 518.343L374.836 526.377L358.545 526.592L366.582 518.556L382.876 518.343Z" fill="#F9CF87"/>
<path d="M401.258 499.965L393.219 508.001L376.928 508.216L384.967 500.18L401.258 499.965Z" fill="#F9CF87"/>
<path d="M419.641 481.588L411.602 489.625L395.311 489.84L403.35 481.803L419.641 481.588Z" fill="#F9CF87"/>
<path d="M438.024 463.212L429.987 471.248L413.693 471.461L421.733 463.425L438.024 463.212Z" fill="#F9CF87"/>
<path d="M1195.14 289.708L962.201 522.563" stroke="#4ECDC4" stroke-miterlimit="10" stroke-linecap="round" stroke-linejoin="round"/>
<path d="M729.149 -6.8457L434.451 287.75" stroke="#4ECDC4" stroke-miterlimit="10"/>
<path d="M1235.76 249.102L1217.94 266.907" stroke="#4ECDC4" stroke-miterlimit="10" stroke-linecap="round" stroke-linejoin="round"/>
<path d="M1334.25 591.851L1227.13 698.934" stroke="#381653" stroke-miterlimit="10" stroke-linecap="round" stroke-linejoin="round"/>
<path d="M822.039 -24.9341L668.651 128.4" stroke="#381653" stroke-miterlimit="10" stroke-linecap="round" stroke-linejoin="round"/>
<path d="M1051.91 -52.3789L811.089 188.355" stroke="#F9CF87" stroke-miterlimit="10" stroke-linecap="round" stroke-linejoin="round"/>
<path d="M228.129 -17.7607L-16.6792 226.963" stroke="#F08CB6" stroke-miterlimit="10" stroke-linecap="round" stroke-linejoin="round"/>
</g>
</g>
<defs>
<clipPath id="clip0_91_2106">
<rect width="1439" height="959" fill="white"/>
</clipPath>
</defs>
</svg>
