<svg width="512" height="512" viewBox="0 0 512 512" fill="none" xmlns="http://www.w3.org/2000/svg" xmlns:xlink="http://www.w3.org/1999/xlink" class=""><rect id="r9" width="512" height="512" x="0" y="0" rx="128" fill="url(#ra)" stroke="#FFFFFF" stroke-width="0" stroke-opacity="100%" paint-order="stroke"></rect><clipPath id="clip"><use xlink:href="#r9"></use></clipPath><defs><linearGradient id="ra" gradientUnits="userSpaceOnUse" gradientTransform="rotate(160)" style="transform-origin: center center;"><stop stop-color="#302530"></stop><stop offset="1" stop-color="#0F2329"></stop></linearGradient><radialGradient id="rb" cx="0" cy="0" r="1" gradientUnits="userSpaceOnUse" gradientTransform="translate(256) rotate(90) scale(512)"><stop stop-color="white"></stop><stop offset="1" stop-color="white" stop-opacity="0"></stop></radialGradient></defs><svg width="350" height="350" viewBox="0 0 111 91" fill="none" xmlns="http://www.w3.org/2000/svg" x="81" y="81" alignment-baseline="middle" style="color: rgb(230, 230, 230);">
<path d="M37.0744 71.9391C36.8608 71.323 36.6848 70.732 36.6848 70.6189C36.6974 70.4554 36.8482 70.556 37.2001 70.9583C37.4892 71.2727 38.5198 72.4923 39.5002 73.6616C40.4805 74.8434 41.5991 76.0882 41.9762 76.4277C42.3533 76.7797 43.1199 77.3958 43.6604 77.8107C44.2134 78.2256 45.2063 78.9046 45.8599 79.3195C46.5135 79.7218 47.7955 80.3882 48.6878 80.8031C49.5802 81.2054 51.2267 81.8467 52.3327 82.2113C53.4388 82.5885 55.0224 83.0286 55.8519 83.2046C56.6815 83.368 57.9509 83.6069 58.6799 83.7201C59.4088 83.8207 61.1056 83.9464 62.4504 83.9967C64.009 84.0344 65.4041 84.0093 66.2839 83.9212C67.038 83.8332 68.232 83.6572 68.9233 83.5189C69.6146 83.3806 70.7457 83.0914 71.437 82.8777C72.1283 82.6765 73.1715 82.2867 73.7622 82.0227C74.3529 81.7587 75.371 81.2432 76.0245 80.866C76.6781 80.5014 77.583 79.9104 78.0355 79.5709C78.488 79.2315 79.2798 78.5274 80.7252 77.0563L80.6372 77.9993C80.5744 78.7411 80.4487 79.156 80.0591 79.9481C79.6694 80.7277 79.3552 81.1677 78.576 81.897C78.0355 82.425 77.0929 83.192 76.4644 83.6195C75.836 84.0344 74.8557 84.6379 74.2649 84.9648C73.6742 85.2917 73.1589 85.6438 73.1086 85.7443C73.0458 85.8449 72.8195 85.9581 72.6059 85.9958C72.3796 86.0461 71.349 86.4107 70.3058 86.8256C69.2752 87.228 67.4653 87.8441 66.2839 88.1961C65.1024 88.5356 64.0718 88.8122 63.9964 88.8122C63.9084 88.8122 63.8581 88.7745 63.8833 88.7242C63.9084 88.6613 62.7898 88.6236 61.4073 88.6236C59.2455 88.611 58.6673 88.5733 57.4859 88.3218C56.7192 88.1584 55.4246 87.8063 54.5951 87.5423C53.7655 87.2783 52.1819 86.6119 51.0759 86.0712C49.9698 85.5306 48.5244 84.7511 47.8709 84.3613C47.2173 83.959 46.1615 83.2549 45.5457 82.7897C44.9298 82.3245 43.9369 81.5198 43.3587 81.0043C42.7806 80.4888 41.8631 79.5709 41.3101 78.9423C40.757 78.3262 40.0029 77.3832 39.6384 76.8677C39.2739 76.3522 38.6329 75.2709 38.2182 74.4788C37.8034 73.6867 37.2881 72.5426 37.0744 71.9391Z" fill="#B5E2E8"></path>
<path d="M0.436935 44.6554C0.537484 44.316 0.738582 43.9388 0.889405 43.8005C0.889405 43.8005 1.03348 43.549 1.16591 43.549C1.29835 43.549 1.46756 43.8382 1.46756 43.8382C1.64352 43.9891 1.99544 44.5674 2.24681 45.1207C2.51075 45.6739 2.92552 46.7426 3.16432 47.5095C3.41569 48.2765 4.01899 50.2505 4.50916 51.9101C4.99934 53.5698 5.67804 55.6695 6.01739 56.5622C6.35675 57.4549 6.9349 58.8505 7.31196 59.6426C7.68902 60.4347 8.31745 61.6292 8.70707 62.283C9.10927 62.9368 9.75027 63.9175 10.1399 64.4707C10.5295 65.0113 11.359 66.0298 11.9875 66.7339C12.6033 67.4254 13.9859 68.8964 15.0668 70.0029C16.1351 71.0967 17.5554 72.4546 18.2089 73.0204C18.8625 73.5988 19.7172 74.2903 20.0942 74.5795C20.4713 74.8561 21.2254 75.3213 21.7659 75.5979C22.3566 75.9122 22.9096 76.1134 23.1735 76.1134C23.45 76.1134 23.714 76.0128 23.8648 75.862C24.0408 75.6859 24.1162 75.447 24.1162 75.0447C24.1162 74.7304 24.0031 74.152 23.8648 73.7497C23.714 73.3599 23.3872 72.7815 23.1358 72.4798C22.8845 72.1655 22.4194 71.7254 22.1052 71.4991C21.791 71.2602 20.974 70.795 20.2828 70.4681C19.5915 70.1286 18.3472 69.6383 17.5302 69.3742C16.1603 68.9216 15.9592 68.821 15.2805 68.1923C14.7149 67.6643 14.4132 67.2368 13.9859 66.3692C13.6842 65.7406 13.3449 64.8982 13.2318 64.4833C13.1187 64.0684 13.0055 63.1882 12.9678 62.5344C12.9176 61.6417 12.9427 61.164 13.1061 60.6107C13.2192 60.1833 13.4706 59.7181 13.7219 59.4414C13.9356 59.2026 14.3504 58.9134 14.6269 58.8002C14.9537 58.6745 15.3307 58.6368 15.6952 58.6871C16.0094 58.7248 16.5122 58.9259 16.8264 59.1271C17.1406 59.3283 17.7942 59.9569 18.2843 60.5353C18.7871 61.1137 19.5789 61.9561 20.044 62.4087C20.5216 62.8613 21.2254 63.4146 21.6025 63.6283C21.9795 63.842 22.6331 64.1312 23.0478 64.2695C23.4626 64.4078 24.6818 64.6216 25.7501 64.7347C26.8184 64.8479 28.2135 65.0742 28.8294 65.2377C29.4453 65.3885 30.413 65.728 30.9661 65.9795C31.5191 66.2435 32.512 66.8344 33.1656 67.2871C33.8191 67.7523 34.8372 68.5821 36.4963 70.1663L36.9236 71.4739C37.1498 72.1906 37.6903 73.4605 38.1176 74.2903C38.5449 75.1201 39.2111 76.2517 39.6007 76.8049C39.9903 77.3582 40.757 78.3137 41.31 78.9424C41.863 79.571 42.7806 80.4889 43.3587 81.0044C43.9369 81.5199 44.9298 82.3245 45.5456 82.7898C46.1615 83.255 47.2173 83.9591 47.8708 84.3614C48.5244 84.7512 49.9698 85.5307 51.0758 86.0713C52.1819 86.612 53.7655 87.2784 54.595 87.5424C55.4246 87.8064 56.7191 88.1585 57.4858 88.3219C58.6673 88.5734 59.2454 88.6111 61.3946 88.6237C63.0286 88.6237 63.9084 88.674 63.8832 88.7494C63.8581 88.8123 63.1668 89.026 62.3499 89.2146C61.5455 89.4032 60.3389 89.6798 59.6853 89.8181C59.0317 89.9439 57.4984 90.1953 56.2918 90.3713C55.0852 90.5474 53.4136 90.7611 52.5841 90.8491C51.6665 90.9497 49.4293 91 46.8653 91C43.7609 91 42.1521 90.9371 40.7696 90.7737C39.7389 90.6605 38.0548 90.4216 37.0241 90.2582C36.0061 90.0822 34.6235 89.8307 33.9574 89.6798C33.2787 89.5289 31.7453 89.1392 30.5513 88.7997C29.3699 88.4602 27.6982 87.9322 26.8561 87.6304C26.0015 87.3161 24.3173 86.6371 23.1107 86.1091C21.9041 85.581 20.2073 84.7763 19.3401 84.2985C18.4729 83.8207 17.4297 83.2424 17.0149 82.9909C16.6002 82.752 15.6952 82.1359 15.0039 81.6204C14.3127 81.1049 13.3449 80.3254 12.8673 79.8854C12.3897 79.4453 11.4345 78.4897 10.7558 77.7605C10.0645 77.0313 9.08413 75.8494 8.55625 75.1453C8.0158 74.4412 7.22398 73.2845 6.78408 72.5678C6.33161 71.8511 5.59006 70.5309 5.12502 69.6383C4.64742 68.7456 3.90587 67.0985 3.46597 65.992C3.0135 64.8856 2.42277 63.2134 2.14627 62.283C1.85719 61.3526 1.54297 60.221 1.42985 59.7683C1.31674 59.3157 1.07793 58.2721 0.914542 57.4423C0.738582 56.6125 0.48721 55.0534 0.348955 53.9847C0.210701 52.916 0.072446 51.1055 0.0221716 49.9613C-0.0281028 48.6034 0.009603 47.4215 0.110152 46.5666C0.198132 45.8373 0.336387 44.9823 0.436935 44.6554Z" fill="#F9CF87"></path>
<path fill-rule="evenodd" clip-rule="evenodd" d="M54.6329 0.00825871C54.2307 0.033405 54.0124 0 53.0758 0.156156C52.5889 0.237338 51.827 0.62464 51.827 0.62464C51.827 0.62464 50.4726 1.12727 49.8819 1.40388C49.2912 1.69306 48.4491 2.17084 47.9966 2.47259L47.1797 3.02581C45.2441 2.46002 44.7539 2.40973 43.4719 2.39715C42.2151 2.39715 41.6872 2.44745 40.8325 2.67376C40.2418 2.83721 39.3117 3.17669 38.7587 3.44072C38.2057 3.70476 37.3887 4.19511 36.9488 4.52201C36.4964 4.86149 35.8554 5.465 35.5034 5.85476C35.1515 6.2571 34.7996 6.57143 34.7368 6.584C34.6613 6.584 34.2717 6.4457 33.857 6.26968C33.4422 6.10623 32.6755 5.86734 32.1602 5.75418C31.4815 5.59073 30.6771 5.54043 29.3323 5.54043C28.088 5.54043 27.1453 5.6033 26.5672 5.7416C26.077 5.84219 25.2852 6.08108 24.8076 6.26968C24.3174 6.4457 23.6135 6.7726 23.2365 6.98635C22.8594 7.20009 22.0927 7.72816 21.5397 8.15565C20.9867 8.58313 20.2326 9.27465 19.8555 9.677C19.4785 10.0793 18.9129 10.8211 18.5861 11.2989C18.2719 11.7767 17.8194 12.6317 17.5932 13.1849C17.3669 13.7381 17.0653 14.6057 16.9396 15.1086C16.8014 15.5989 16.7259 16.0641 16.7637 16.1396C16.8014 16.215 17.2664 15.9636 17.7943 15.5989C18.385 15.1966 19.1266 14.832 19.6544 14.6685C20.132 14.5177 20.6599 14.3668 20.8107 14.3291C20.9741 14.2788 21.0998 14.3165 21.0998 14.3793C21.0998 14.4422 20.8862 14.6057 20.6222 14.744C20.3708 14.8697 19.7047 15.3223 19.1517 15.7372C18.5987 16.1522 17.8823 16.7934 17.568 17.1706C17.2538 17.5352 16.7762 18.1764 16.5123 18.5913C16.2483 19.0063 15.8839 19.6852 15.7205 20.1001C15.5571 20.515 15.3183 21.3323 15.1926 21.9232L14.9789 22.9919C14.8281 22.1118 14.8281 21.4957 14.8784 21.0431C14.9161 20.5905 15.0418 19.8864 15.1549 19.4715C15.2554 19.0566 15.5068 18.3902 15.7079 17.9878C15.909 17.5981 16.0724 17.2334 16.0724 17.1706C16.0724 17.1203 15.7205 17.1329 15.2931 17.1832C14.8532 17.246 13.9106 17.4849 13.1816 17.7238C12.4526 17.9627 11.4974 18.365 11.0449 18.6039C10.5925 18.8554 9.81322 19.3709 9.2979 19.7606C8.78259 20.163 8.07875 20.7916 7.72683 21.1688C7.37491 21.546 6.78418 22.313 6.41969 22.8662C6.0552 23.4194 5.59017 24.2995 5.3765 24.815C5.16283 25.3305 4.87376 26.1855 4.7355 26.701C4.59725 27.2165 4.45899 28.2349 4.42129 28.9642C4.38358 29.706 4.42129 30.7747 4.4967 31.4159C4.58468 32.032 4.82348 33.063 5.02458 33.6791C5.23825 34.2952 5.62787 35.2382 5.90438 35.7537C6.19346 36.2692 6.64593 37.011 6.93501 37.3882C7.22408 37.7654 7.67655 38.3312 7.96563 38.6329C8.24214 38.9347 8.89571 39.513 9.41102 39.9028L10.3537 40.6195C10.2028 42.166 10.1903 43.0335 10.228 43.549C10.2783 44.0645 10.4165 44.9698 10.5548 45.5607C10.693 46.1516 11.0198 47.0821 11.2712 47.6353C11.5351 48.1885 12.0504 49.0938 12.4275 49.6344C12.8045 50.1876 13.5084 50.9797 13.9734 51.3946C14.4385 51.8221 15.2554 52.4256 15.7959 52.7651C16.3238 53.092 17.279 53.5572 17.8948 53.7961C18.9632 54.1985 19.0386 54.2487 19.2522 54.7642C19.3905 55.066 19.7173 55.6947 20.0064 56.185C20.3206 56.7257 20.9867 57.5303 21.7283 58.2596C22.6081 59.1397 23.2113 59.6049 23.9906 60.045C24.5813 60.3593 25.4109 60.7491 25.8382 60.8874C26.2781 61.0382 27.0448 61.2143 27.5349 61.2897C28.0628 61.3777 29.0683 61.4029 29.8978 61.3651C30.6897 61.3274 31.6826 61.2017 32.0973 61.0885C32.5121 60.9754 33.3039 60.6736 33.857 60.4096C34.41 60.1581 35.0887 59.7809 35.3652 59.5798C35.6417 59.3786 35.9936 59.1145 36.1444 58.9888L36.4335 58.7625C35.2521 57.3543 34.699 56.5119 34.4351 55.9964C34.1712 55.4809 33.857 54.6008 33.7313 54.0476C33.5679 53.2932 33.5176 52.6897 33.5679 51.6587C33.593 50.8917 33.6936 50.1625 33.769 50.0242C33.8947 49.823 33.9072 49.9739 33.8444 50.8414C33.7941 51.5581 33.8444 52.2622 33.9701 52.9789C34.1083 53.7081 34.3597 54.4373 34.7493 55.242C35.2395 56.2353 35.516 56.6125 36.4209 57.5178C37.2882 58.3853 37.7155 58.6996 38.5702 59.1145C39.1609 59.4037 39.9779 59.7306 40.3926 59.8312C40.8451 59.9444 41.7123 60.0198 42.5544 60.0198H43.9747C44.7037 61.1388 45.3069 61.8806 45.7971 62.3961C46.2873 62.8991 47.0414 63.6032 47.4939 63.9426C47.9464 64.2821 48.9267 64.8605 49.6934 65.2377C50.4978 65.64 51.5284 66.0298 52.1443 66.1806C52.735 66.3189 53.8913 66.495 54.7208 66.5704C55.8394 66.671 56.5056 66.671 57.2974 66.5578C57.8881 66.4824 58.8308 66.2687 59.3964 66.1052C59.9745 65.9418 60.7915 65.64 61.2188 65.4514C61.6587 65.2502 62.3248 64.8982 62.7019 64.6467L63.3932 64.1941C63.8833 65.1874 64.2101 65.7657 64.4489 66.1178C64.6877 66.4573 65.1151 67.023 65.3916 67.3625C65.6807 67.702 66.2965 68.2804 66.7867 68.6575C67.2769 69.0347 68.1441 69.588 68.7348 69.8771C69.3633 70.204 70.2933 70.5309 70.9972 70.6944C71.701 70.8453 72.9956 71.0087 74.1393 71.0716C76.0745 71.1847 76.1 71.1973 77.0924 71.6874L77.0929 71.6877C77.646 71.9769 78.3498 72.4421 78.6515 72.7438C78.9657 73.0456 79.393 73.5611 79.6192 73.9131C79.8329 74.2526 80.1471 74.9064 80.3105 75.359C80.5367 76.0128 80.5996 76.4403 80.6122 77.509C80.6122 78.8166 80.5996 78.8544 80.0843 79.8979C79.6695 80.7529 79.3679 81.1427 78.5509 81.9222C77.9853 82.4628 76.9296 83.3053 76.1754 83.7956C75.4339 84.286 74.441 84.8895 73.9759 85.1409C73.5109 85.405 73.1213 85.6438 73.1338 85.6941C73.1338 85.757 73.2595 85.757 73.4103 85.7193C73.5737 85.669 74.2901 85.405 75.0191 85.1283C75.7481 84.8517 77.1306 84.2231 78.0984 83.7327C79.0662 83.2298 80.5116 82.4 81.3034 81.8719C82.0952 81.3438 83.2893 80.4637 83.9428 79.9105C84.5964 79.3699 85.5768 78.4395 86.1298 77.8611C86.6702 77.2827 87.462 76.3523 87.8768 75.7991C88.279 75.2459 88.9326 74.2526 89.3222 73.5988C89.7118 72.945 90.2648 71.8134 90.5665 71.0842C90.8807 70.3549 91.2578 69.2862 91.4212 68.6953C91.5845 68.1043 91.8108 67.1488 91.9113 66.5578C92.0244 65.9669 92.1753 64.7222 92.2381 63.7918C92.3261 62.6099 92.3261 61.5412 92.2381 60.2713C92.1627 59.2654 91.9616 57.6812 91.7982 56.7508C91.6474 55.8204 91.5594 55.0031 91.6097 54.9277C91.66 54.8523 91.949 54.6259 92.2381 54.4248C92.7283 54.0727 92.7911 54.0601 93.2185 54.1985C93.4698 54.2865 94.1862 54.4122 94.8147 54.5002C95.4682 54.5882 96.4989 54.6134 97.2655 54.5756C97.9945 54.5254 99.1257 54.3619 99.7793 54.1985C100.433 54.035 101.451 53.683 102.042 53.4315C102.632 53.1675 103.5 52.7022 103.99 52.3753C104.48 52.0484 105.309 51.3569 105.862 50.8414C106.403 50.3259 107.119 49.5338 107.459 49.0812C107.798 48.6286 108.351 47.6981 108.703 47.0066C109.042 46.3151 109.482 45.2338 109.671 44.6177C109.998 43.5616 110.01 43.3353 110.01 41.1601C109.998 39.2239 109.96 38.6832 109.746 37.8911C109.595 37.3756 109.306 36.4955 109.093 35.9423C108.879 35.389 108.426 34.4838 108.087 33.9306C107.748 33.3773 107.132 32.5475 106.73 32.0823C106.328 31.6171 105.573 30.8753 105.046 30.4478C104.518 30.0077 103.638 29.4042 103.097 29.0899C102.544 28.7756 101.564 28.3481 100.91 28.1218L99.7164 27.7194C99.3142 26.3993 99.0126 25.67 98.7989 25.2551C98.5727 24.8402 98.0071 24.0984 97.5421 23.6206C96.989 23.0548 96.3732 22.577 95.8076 22.2878C95.33 22.0364 94.7393 21.7723 94.5005 21.6843C94.0731 21.5586 94.0606 21.5335 93.8343 20.4522C93.6961 19.8361 93.4321 18.9182 93.2436 18.4027C93.0425 17.8872 92.6026 17.0323 92.2632 16.5168C91.9239 16.0013 91.3709 15.272 91.0315 14.8948C90.6922 14.5177 90.0512 13.9393 89.5987 13.5872C89.1462 13.2478 88.279 12.7323 87.6506 12.4305C87.0221 12.1288 86.1549 11.7893 85.7024 11.6761C85.25 11.563 84.257 11.4372 83.5029 11.3995C82.6231 11.3492 81.7559 11.3869 81.1149 11.4875C80.5619 11.5755 79.7198 11.7767 79.2296 11.9402C78.7394 12.1162 78.3247 12.2419 78.287 12.2419C78.2493 12.2419 77.9099 11.8647 77.5328 11.3995C77.1055 10.8714 76.4771 10.3057 75.8989 9.91588C75.3836 9.57641 74.5918 9.14892 74.1393 8.98547C73.4103 8.69629 73.1338 8.67114 71.6884 8.67114C70.3687 8.68372 69.9163 8.73401 69.3004 8.94775C68.8857 9.08606 68.5463 9.19922 68.5337 9.18664C68.5337 9.17407 68.2572 8.59571 67.9179 7.90418C67.5785 7.21266 66.9752 6.21938 66.5856 5.70389C66.196 5.18839 65.4796 4.38371 65.0145 3.93108C64.5369 3.47844 63.6697 2.78692 63.079 2.39715C62.4882 2.01996 61.445 1.46674 60.7538 1.19013C60.0625 0.913524 59.1073 0.599196 58.6171 0.486038C58.0712 0.312317 58.0712 0.312317 57.4859 0.171709C57.1975 0.102412 56.7192 0.0416821 56.2919 0.0208318C55.7766 -0.00431442 55.035 -0.00431442 54.6329 0.00825871ZM61.445 30.1083C61.6838 30.0329 62.2243 29.9197 62.6391 29.8569C63.0538 29.7814 64.0719 29.7563 64.9014 29.7814C65.8566 29.8066 66.7616 29.9197 67.3523 30.0706C67.8676 30.2089 68.7725 30.5107 69.3633 30.737C69.954 30.9759 70.9972 31.5039 71.6885 31.9189C72.3797 32.3338 73.2344 32.8996 73.5738 33.151C73.9257 33.4151 74.7929 34.2072 75.4967 34.9113C76.2132 35.6154 77.1809 36.6715 77.646 37.2624C78.111 37.8534 78.84 38.8467 79.2548 39.4627C79.6695 40.0788 80.3985 41.2733 80.8635 42.1031C81.3411 42.9329 81.9696 44.1525 82.2712 44.8063C82.576 45.4404 83.0935 46.6659 83.4684 47.5535L83.5029 47.6353C83.8674 48.528 84.3953 49.9739 84.6718 50.8414C84.9483 51.709 85.3254 52.9789 85.4888 53.6704C85.6647 54.3619 85.891 55.3803 86.0041 55.9335C86.1046 56.4868 86.2932 57.6183 86.4189 58.4482C86.5697 59.4917 86.6325 60.7868 86.6325 62.6602C86.6325 64.6216 86.5822 65.7406 86.4189 66.7464C86.3057 67.5008 86.1298 68.3809 86.0418 68.6953C85.9538 69.0096 85.8281 69.2485 85.7653 69.2359C85.6899 69.2233 85.5893 68.8461 85.5391 68.4187C85.4888 67.9786 85.2625 67.1236 85.0614 66.495C84.8478 65.8663 84.4833 64.9988 84.2319 64.5461C83.9931 64.0935 83.5155 63.3894 83.1887 62.9745C82.8619 62.5596 82.3089 61.9686 81.9821 61.6543C81.6428 61.34 81.0269 60.8245 80.6122 60.5102C80.1974 60.1958 79.4056 59.6678 78.8526 59.3534C78.2995 59.0391 77.1055 58.4859 76.2132 58.1213C75.3208 57.7692 73.9005 57.2789 73.071 57.04C72.2415 56.8011 70.4567 56.3862 69.1119 56.1221C67.7671 55.8455 65.7561 55.5186 64.65 55.3803C63.544 55.242 61.2565 55.0157 59.5598 54.8774C57.863 54.7391 54.4192 54.5128 51.8929 54.3619C49.3666 54.211 46.9157 54.0098 46.4256 53.9093C45.9354 53.8087 45.1813 53.5446 44.7288 53.3183C44.2512 53.092 43.5725 52.6017 43.0949 52.149C42.6424 51.7215 42.0643 51.0174 41.8003 50.5774C41.5364 50.1373 41.2096 49.4081 41.0713 48.9555C40.8828 48.3771 40.8074 47.7987 40.8074 47.0066C40.8074 46.2145 40.8828 45.6361 41.0713 45.0578C41.2096 44.6052 41.5364 43.8759 41.8003 43.4358C42.0643 42.9958 42.6676 42.2665 43.1577 41.8013C43.761 41.223 44.3643 40.7955 45.1059 40.4309C45.6966 40.1417 46.6267 39.7896 47.1797 39.6513C47.7327 39.513 48.7759 39.3496 49.5049 39.2867C50.2967 39.2113 51.4404 39.2113 52.3705 39.2867C53.2126 39.3496 54.6203 39.5382 55.5127 39.7142C56.3925 39.8777 57.1214 40.0034 57.134 39.9908C57.1466 39.9782 57.0837 39.5759 56.9832 39.0855C56.8826 38.5952 56.7947 37.6899 56.7947 37.0738C56.7947 36.4578 56.8826 35.5525 56.9832 35.0621C57.0837 34.5718 57.3603 33.7923 57.5991 33.3019C57.8253 32.8116 58.2401 32.1703 58.5166 31.856C58.8308 31.5039 59.3838 31.089 60.0122 30.7747C60.5527 30.4855 61.2062 30.1838 61.445 30.1083Z" fill="#F493BC"></path>
</svg>
</svg>