<svg width="654" height="469" viewBox="0 0 654 469" fill="none" xmlns="http://www.w3.org/2000/svg">
  <path fill-rule="evenodd" clip-rule="evenodd" d="M752.691 523.698H-69.4679C-70.9588 523.868 -72.4792 523.956 -74.023 523.956C-93.3403 523.956 -109 510.253 -109 493.351C-109 485.03 -105.205 477.484 -99.0466 471.968C-102.736 465.202 -104.885 457.079 -104.885 448.344C-104.885 424.765 -89.2254 405.651 -69.9082 405.651C-69.1262 405.651 -68.3501 405.682 -67.5809 405.744C-63.625 394.563 -55.0063 386.389 -44.6966 384.831C-44.7014 384.656 -44.7038 384.481 -44.7038 384.305C-44.7038 372.516 -33.8802 362.959 -20.5285 362.959C-15.1868 362.959 -10.2498 364.488 -6.24858 367.079C-3.64126 356.653 4.29314 349.071 13.6766 349.071C14.2149 349.071 14.7486 349.096 15.2766 349.145C18.9849 330.596 34.7074 316.665 53.5404 316.665C60.802 316.665 67.6012 318.737 73.4276 322.345C77.3053 312.986 86.7455 306.378 97.7758 306.378C104.306 306.378 110.279 308.694 114.87 312.525C121.008 303.855 131.449 298.148 143.298 298.148C147.9 298.148 152.291 299.009 156.299 300.571C161.24 291.417 170.269 285.289 180.589 285.289C184.743 285.289 188.689 286.282 192.242 288.066C194.586 272.832 208.856 261.114 226.11 261.114C236.092 261.114 245.074 265.035 251.327 271.29C254.374 265.275 260.939 261.114 268.546 261.114C272.137 261.114 275.496 262.041 278.362 263.653C294.311 251.049 304.874 235.52 307.644 215.335H331.819C335.037 229.146 342.526 243.013 352.089 255.703C356.571 253.573 361.657 252.369 367.048 252.369C385.086 252.369 399.71 265.841 399.71 282.46C399.71 284.708 399.442 286.898 398.935 289.006C401.784 287.937 404.913 287.346 408.197 287.346C421.406 287.346 432.115 296.903 432.115 308.693C432.115 308.726 432.115 308.759 432.115 308.792C435.422 307.25 439.184 306.378 443.174 306.378C446.358 306.378 449.398 306.933 452.176 307.942C455.913 296.544 466.017 288.375 477.893 288.375C485.664 288.375 492.675 291.872 497.641 297.481C503.75 288.57 514.051 282.717 525.73 282.717C542.676 282.717 556.722 295.039 559.267 311.148C565.241 308.12 572.247 306.378 579.739 306.378C598.421 306.378 614.083 317.214 618.255 331.792C620.809 330.985 623.504 330.553 626.289 330.553C641.303 330.553 653.704 343.102 655.611 359.36C655.695 359.359 655.78 359.358 655.865 359.358C663.182 359.358 669.449 363.719 672.058 369.91C676.146 367.768 680.783 366.559 685.698 366.559C702.175 366.559 715.531 380.146 715.531 396.907C715.531 398.303 715.439 399.677 715.259 401.023C715.35 401.022 715.441 401.022 715.531 401.022C734.28 401.022 749.48 420.712 749.48 445C749.48 446.113 749.448 447.217 749.385 448.309C751.564 447.659 753.834 447.315 756.167 447.315C772.643 447.315 786 464.472 786 485.635C786 504.884 774.951 520.818 760.555 523.544L760.545 523.698H759.642C758.502 523.868 757.342 523.956 756.167 523.956C754.991 523.956 753.831 523.868 752.691 523.698Z" fill="#D9D9D9" fill-opacity="0.2"/>
  <path fill-rule="evenodd" clip-rule="evenodd" d="M752.691 544.273H-69.4674C-70.9585 544.443 -72.479 544.53 -74.023 544.53C-93.3403 544.53 -109 530.828 -109 513.926C-109 505.605 -105.205 498.059 -99.0466 492.542C-102.736 485.777 -104.885 477.654 -104.885 468.918C-104.885 445.34 -89.2254 426.226 -69.9082 426.226C-69.1262 426.226 -68.3502 426.257 -67.581 426.319C-63.625 415.138 -55.0064 406.964 -44.6966 405.406C-44.7014 405.231 -44.7038 405.055 -44.7038 404.879C-44.7038 393.09 -33.8802 383.533 -20.5285 383.533C-15.1868 383.533 -10.2498 385.063 -6.24857 387.653C-3.64123 377.228 4.29317 369.645 13.6766 369.645C14.2149 369.645 14.7486 369.67 15.2766 369.719C18.9849 351.171 34.7074 337.24 53.5404 337.24C60.802 337.24 67.6012 339.311 73.4276 342.92C77.3053 333.56 86.7455 326.953 97.7758 326.953C104.306 326.953 110.279 329.269 114.87 333.1C121.008 324.43 131.449 318.723 143.298 318.723C147.9 318.723 152.291 319.584 156.299 321.146C161.241 311.992 170.269 305.864 180.589 305.864C184.743 305.864 188.689 306.857 192.242 308.641C194.586 293.407 208.856 281.688 226.11 281.688C236.092 281.688 245.074 285.61 251.327 291.865C254.374 285.85 260.939 281.688 268.546 281.688C272.137 281.688 275.496 282.616 278.362 284.228C294.311 271.623 304.874 256.095 307.644 235.91H331.819C335.037 249.721 342.526 263.588 352.089 276.278C356.571 274.147 361.657 272.944 367.048 272.944C385.086 272.944 399.71 286.416 399.71 303.035C399.71 305.283 399.442 307.473 398.935 309.581C401.784 308.512 404.913 307.921 408.197 307.921C421.406 307.921 432.115 317.478 432.115 329.267C432.115 329.301 432.115 329.334 432.115 329.367C435.422 327.825 439.184 326.953 443.174 326.953C446.358 326.953 449.398 327.508 452.176 328.516C455.913 317.118 466.016 308.95 477.893 308.95C485.664 308.95 492.675 312.446 497.641 318.056C503.75 309.145 514.051 303.292 525.73 303.292C542.676 303.292 556.722 315.614 559.267 331.722C565.241 328.695 572.247 326.953 579.739 326.953C598.421 326.953 614.083 337.789 618.255 352.367C620.809 351.56 623.504 351.128 626.289 351.128C641.303 351.128 653.704 363.677 655.611 379.934C655.695 379.933 655.78 379.933 655.865 379.933C663.182 379.933 669.449 384.294 672.058 390.484C676.146 388.343 680.783 387.134 685.698 387.134C702.175 387.134 715.531 400.721 715.531 417.481C715.531 418.878 715.439 420.252 715.259 421.598C715.35 421.597 715.441 421.596 715.531 421.596C734.28 421.596 749.48 441.286 749.48 465.575C749.48 466.688 749.448 467.792 749.385 468.884C751.564 468.233 753.834 467.89 756.167 467.89C772.643 467.89 786 485.046 786 506.21C786 525.459 774.951 541.392 760.555 544.119L760.545 544.273H759.642C758.502 544.443 757.342 544.53 756.167 544.53C754.991 544.53 753.831 544.443 752.691 544.273Z" fill="#D9D9D9"/>
  <path d="M379 167.405V211.346C379 211.346 362.504 202.331 355.178 188.13C353.538 184.949 352.358 181.51 351.926 177.852V136.247C351.926 136.247 355.893 138.661 360.789 142.468C368.686 148.602 379 158.345 379 167.405Z" fill="#533377"/>
  <path opacity="0.5" d="M351.926 136.248V139.137C359.579 144.501 374.648 156.452 374.648 167.403V208.617C377.255 210.392 379 211.346 379 211.346V167.403C379 152.727 351.926 136.248 351.926 136.248Z" fill="#381653"/>
  <path opacity="0.5" d="M360.789 142.468V177.397C360.789 177.397 357.409 182.667 355.178 188.13C353.538 184.949 352.358 181.51 351.926 177.852V136.247C351.926 136.247 355.893 138.661 360.789 142.468Z" fill="#381653"/>
  <path opacity="0.7" d="M344.432 237.533C343.239 242.268 341.028 247.515 337.086 252.63L336.174 247.402L335.272 242.171C335.272 242.171 333.841 245.774 331.294 250.931C328.745 256.095 320.5 269.222 320.5 269.222C320.5 269.222 312.254 256.095 309.709 250.931C307.159 245.774 305.731 242.171 305.731 242.171L304.825 247.402L303.916 252.63C299.975 247.515 297.76 242.268 296.567 237.533C296.96 223.597 296.771 211.49 296.48 202.888C297.021 202.336 297.524 201.892 297.947 201.547H343.054C343.473 201.889 343.976 202.334 344.518 202.884C344.228 211.488 344.038 223.593 344.432 237.533Z" fill="#F8BE9A"/>
  <path d="M356.921 175.346C356.921 175.346 350.475 183.097 348.757 187.658C348.599 188.08 348.441 188.506 348.287 188.938C346.772 193.118 345.534 197.324 345.534 197.324H295.466C295.466 197.324 294.228 193.118 292.713 188.938C292.559 188.506 292.4 188.08 292.243 187.658C290.525 183.097 284.078 175.346 284.078 175.346L287.044 172.884H353.956L356.921 175.346Z" fill="#E6E6E6"/>
  <path d="M349.057 224.286L347.059 219.206L345.07 214.139C345.122 214.368 346.05 218.484 345.567 224.437C345.067 230.565 343.072 238.632 337.086 246.4L336.174 241.172L335.272 235.941C335.272 235.941 333.841 239.544 331.294 244.701C328.745 249.864 320.5 262.992 320.5 262.992C320.5 262.992 312.255 249.864 309.709 244.701C307.159 239.544 305.731 235.941 305.731 235.941L304.825 241.172L303.916 246.4C297.931 238.632 295.932 230.565 295.436 224.437C294.949 218.484 295.877 214.365 295.929 214.139L293.941 219.206L291.945 224.286C289.106 214.813 290.101 207.932 292.142 203.177C292.447 202.459 292.78 201.789 293.121 201.167C293.808 199.932 294.546 198.882 295.271 198.005C296.263 196.79 297.224 195.907 297.946 195.317H343.053C344.166 196.229 345.851 197.844 347.359 200.29C347.537 200.57 347.708 200.863 347.876 201.167C348.627 202.518 349.307 204.086 349.825 205.895C351.13 210.439 351.391 216.482 349.057 224.286Z" fill="#F1A924"/>
  <path opacity="0.3" d="M338.325 216.8L337.079 213.254L335.835 209.708C335.835 209.708 336.456 212.629 336.146 216.904C335.835 221.183 334.589 226.816 330.853 232.24L330.285 228.59L329.721 224.939C329.721 224.939 328.828 227.454 327.238 231.055C325.647 234.66 320.501 243.827 320.501 243.827C320.501 243.827 315.354 234.66 313.763 231.055C312.173 227.454 311.28 224.939 311.28 224.939L310.716 228.59L310.148 232.24C306.412 226.817 305.166 221.184 304.855 216.904C304.544 212.629 305.166 209.708 305.166 209.708L303.923 213.254L302.676 216.8C300.904 210.185 301.527 205.38 302.8 202.062C302.99 201.56 303.198 201.092 303.412 200.658C304.431 198.602 305.647 197.282 306.423 196.573H334.58C335.355 197.282 336.572 198.602 337.591 200.658C338.059 201.6 338.484 202.696 338.808 203.958C339.618 207.132 339.782 211.352 338.325 216.8Z" fill="#533377"/>
  <path opacity="0.3" d="M329.73 209.538L329.085 207.242L328.441 204.946C328.441 204.946 328.764 206.837 328.603 209.606C328.441 212.375 327.796 216.022 325.862 219.534L325.568 217.171L325.276 214.808C325.276 214.808 324.814 216.436 323.991 218.767C323.167 221.101 320.502 227.036 320.502 227.036C320.502 227.036 317.837 221.101 317.014 218.767C316.19 216.436 315.728 214.808 315.728 214.808L315.436 217.171L315.143 219.534C313.208 216.022 312.562 212.375 312.402 209.606C312.241 206.837 312.563 204.946 312.563 204.946L311.919 207.242L311.274 209.538C310.357 205.256 310.679 202.145 311.338 199.997C311.437 199.672 311.544 199.369 311.655 199.088C312.182 197.757 312.813 196.901 313.214 196.444H327.794C328.196 196.902 328.826 197.757 329.354 199.088C329.596 199.698 329.816 200.407 329.984 201.224C330.4 203.279 330.485 206.011 329.73 209.538Z" fill="#533377"/>
  <path opacity="0.5" d="M347.361 200.29C345.853 197.843 344.167 196.228 343.055 195.317H297.948C297.226 195.907 296.265 196.79 295.272 198.005C299.363 198.357 310.679 199.273 323.662 199.84C325.104 202.405 328.607 207.883 333.886 211.347L327.514 199.995C334.079 200.238 340.92 200.373 347.361 200.29Z" fill="#3D2059"/>
  <path d="M348.286 188.937C346.772 193.12 345.534 197.326 345.534 197.326H295.465C295.465 197.326 294.227 193.12 292.713 188.937H348.286Z" fill="#533377"/>
  <path opacity="0.5" d="M356.921 175.346C356.921 175.346 350.475 183.097 348.757 187.658C348.599 188.08 348.441 188.506 348.287 188.938C346.772 193.118 345.534 197.324 345.534 197.324H335.233C334.998 187.439 339.517 175.784 339.517 175.784V172.884H353.957L356.921 175.346Z" fill="#999999"/>
  <path d="M356.921 74.5785V175.784H284.078V74.5785C284.078 53.7151 293.535 34.8635 302.815 21.3905C302.963 21.1743 303.108 20.9649 303.256 20.7521C304.059 19.6011 304.857 18.4897 305.651 17.4222C313.507 6.81907 320.501 0.447021 320.501 0.447021C320.501 0.447021 327.495 6.81907 335.349 17.4231C336.142 18.4897 336.942 19.6019 337.745 20.753C338.312 21.5654 338.879 22.3968 339.443 23.2506C348.299 36.572 356.921 54.6568 356.921 74.5785Z" fill="white"/>
  <path opacity="0.5" d="M339.442 23.2508C325.193 24.0537 307.995 22.0549 302.815 21.3907C302.963 21.1744 303.108 20.9651 303.256 20.7523C304.059 19.6012 304.858 18.4898 305.651 17.4224H335.349C336.142 18.489 336.941 19.6012 337.744 20.7523C338.311 21.5656 338.878 22.397 339.442 23.2508Z" fill="#999999"/>
  <path d="M337.744 20.753H303.256C312.026 8.16654 320.5 0.447021 320.5 0.447021C320.5 0.447021 328.974 8.16654 337.744 20.753Z" fill="#533377"/>
  <path opacity="0.5" d="M356.921 74.5785V175.784H339.516V71.7328C339.301 37.1354 320.501 0.447021 320.501 0.447021C320.501 0.447021 327.495 6.81907 335.35 17.4231C336.142 18.4897 336.942 19.6019 337.745 20.753C338.312 21.5654 338.879 22.3968 339.443 23.2506C348.3 36.572 356.921 54.6568 356.921 74.5785Z" fill="#999999"/>
  <path d="M262 167.404V211.347C262 211.347 286.711 197.84 289.074 177.849V136.249C289.074 136.249 262 152.727 262 167.404Z" fill="#533377"/>
  <path opacity="0.5" d="M283.757 139.822V177.849C282.096 191.895 269.403 202.74 262.001 207.948V211.347C262.001 211.347 286.712 197.84 289.075 177.849V136.249C289.075 136.249 286.887 137.58 283.757 139.822Z" fill="#381653"/>
  <path d="M320.5 118.306C333.732 118.306 344.459 105.415 344.459 89.5126C344.459 73.6106 333.732 60.7195 320.5 60.7195C307.269 60.7195 296.542 73.6106 296.542 89.5126C296.542 105.415 307.269 118.306 320.5 118.306Z" fill="#533377"/>
  <path opacity="0.7" d="M341.505 89.5118C341.505 103.829 332.101 115.435 320.501 115.435C315.65 115.435 311.183 113.408 307.627 109.994C306.102 108.537 304.746 106.823 303.601 104.905C303.105 104.08 302.647 103.217 302.235 102.32C301.452 100.625 300.82 98.8071 300.363 96.8996C299.798 94.5596 299.496 92.0775 299.496 89.5126C299.496 75.1953 308.901 63.5894 320.501 63.5894C323.837 63.5894 326.99 64.5465 329.791 66.2585C331.364 67.2156 332.827 68.408 334.145 69.8037C334.88 70.5774 335.567 71.4123 336.205 72.3014C337.484 74.071 338.564 76.0595 339.408 78.2125C340.754 81.6277 341.505 85.4599 341.505 89.5118Z" fill="white"/>
  <path opacity="0.5" d="M331.458 178.219V197.325H322.743C319.175 188.063 319.586 177.672 319.586 177.672L322.119 173.431L331.458 178.219Z" fill="#999999"/>
  <path d="M333.885 167.404V211.347C333.885 211.347 320.648 197.84 319.381 177.849V136.249C319.381 136.249 333.885 152.727 333.885 167.404Z" fill="#533377"/>
  <path opacity="0.5" d="M319.382 136.248V138.583C323.885 144.981 330.018 155.486 330.018 165.236V206.567C332.222 209.649 333.886 211.347 333.886 211.347V167.404C333.886 152.727 319.382 136.248 319.382 136.248Z" fill="#381653"/>
  <path d="M334.144 69.802L315.598 88.3478C314.512 89.4342 312.736 89.4342 311.65 88.3478C310.563 87.2614 310.563 85.4823 311.65 84.3959L329.79 66.2559C331.362 67.2139 332.825 68.4072 334.144 69.802Z" fill="white"/>
  <path d="M339.406 78.2118L307.626 109.995C306.101 108.538 304.745 106.824 303.6 104.906L336.202 72.3015C337.483 74.0703 338.562 76.0587 339.406 78.2118Z" fill="white"/>
  <path d="M310.424 93.057C310.424 93.7178 310.173 94.382 309.673 94.8809L302.235 102.32C301.451 100.624 300.82 98.8061 300.362 96.8986L306.029 91.2322C307.032 90.2302 308.672 90.2302 309.674 91.2322C310.173 91.7319 310.424 92.3962 310.424 93.057Z" fill="white"/>
  <path d="M323.728 99.5144C322.933 98.721 322.933 97.4217 323.728 96.6274L335.275 85.08C336.069 84.2865 337.368 84.2865 338.162 85.08C338.956 85.8743 338.956 87.1727 338.162 87.967L326.615 99.5144C325.82 100.309 324.521 100.309 323.728 99.5144Z" fill="white"/>
</svg>
